<?xml version="1.0" encoding="UTF-8" standalone="no"?>
<!DOCTYPE svg PUBLIC "-//W3C//DTD SVG 1.1//EN"
 "http://www.w3.org/Graphics/SVG/1.1/DTD/svg11.dtd">
<!-- Generated by graphviz version 14.1.2 (0)
 -->
<!-- Title: agencies_list_flow Pages: 1 -->
<svg width="1848pt" height="1130pt"
 viewBox="0.00 0.00 1848.00 1130.00" xmlns="http://www.w3.org/2000/svg" xmlns:xlink="http://www.w3.org/1999/xlink">
<g id="graph0" class="graph" transform="scale(1 1) rotate(0) translate(4 1125.8)">
<title>agencies_list_flow</title>
<polygon fill="#0f1115" stroke="none" points="-4,4 -4,-1125.8 1844.38,-1125.8 1844.38,4 -4,4"/>
<text xml:space="preserve" text-anchor="start" x="817.81" y="-1105.5" font-family="Helvetica,sans-Serif" font-weight="bold" font-size="14.00" fill="#e6e6e6">agencies / list + filter flow</text>
<text xml:space="preserve" text-anchor="start" x="781.44" y="-1091.5" font-family="Helvetica,sans-Serif" font-size="14.00" fill="#e6e6e6"> &#160;&#160;&#160;&#160;&#160;&#160;&#160;&#160;&#160;&#160;</text>
<text xml:space="preserve" text-anchor="start" x="830.94" y="-1091.5" font-family="Helvetica,sans-Serif" font-size="11.00" fill="#9aa3b2">paginated · include_deleted · status_filter</text>
<!-- start -->
<g id="node1" class="node">
<title>start</title>
<ellipse fill="#0d6e3a" stroke="#3a4252" stroke-width="1.2" cx="291.12" cy="-1060.6" rx="25.2" ry="25.2"/>
<text xml:space="preserve" text-anchor="middle" x="291.12" y="-1055.92" font-family="Helvetica,sans-Serif" font-size="14.00" fill="#ffffff">START</text>
</g>
<!-- req -->
<g id="node3" class="node">
<title>req</title>
<path fill="#1c2540" stroke="#3a4252" stroke-width="1.2" d="M570.25,-984.4C570.25,-984.4 12,-984.4 12,-984.4 6,-984.4 0,-978.4 0,-972.4 0,-972.4 0,-867.65 0,-867.65 0,-861.65 6,-855.65 12,-855.65 12,-855.65 570.25,-855.65 570.25,-855.65 576.25,-855.65 582.25,-861.65 582.25,-867.65 582.25,-867.65 582.25,-972.4 582.25,-972.4 582.25,-978.4 576.25,-984.4 570.25,-984.4"/>
<text xml:space="preserve" text-anchor="middle" x="291.12" y="-967.1" font-family="Helvetica,sans-Serif" font-size="14.00" fill="#e6e6e6">GET /agencies?page=1&amp;page_size=20&amp;include_deleted=false&amp;status_filter=null</text>
<text xml:space="preserve" text-anchor="middle" x="291.12" y="-949.85" font-family="Helvetica,sans-Serif" font-size="14.00" fill="#e6e6e6">Query params (FastAPI validation):</text>
<text xml:space="preserve" text-anchor="middle" x="291.12" y="-932.6" font-family="Helvetica,sans-Serif" font-size="14.00" fill="#e6e6e6"> &#160;page: int ≥ 1, ≤ 10000 &#160;(default 1)</text>
<text xml:space="preserve" text-anchor="middle" x="291.12" y="-915.35" font-family="Helvetica,sans-Serif" font-size="14.00" fill="#e6e6e6"> &#160;page_size: int ≥ 1, ≤ 100 (default 20)</text>
<text xml:space="preserve" text-anchor="middle" x="291.12" y="-898.1" font-family="Helvetica,sans-Serif" font-size="14.00" fill="#e6e6e6"> &#160;include_deleted: bool &#160;(default false)</text>
<text xml:space="preserve" text-anchor="middle" x="291.12" y="-880.85" font-family="Helvetica,sans-Serif" font-size="14.00" fill="#e6e6e6"> &#160;status_filter: str | None</text>
<text xml:space="preserve" text-anchor="middle" x="291.12" y="-863.6" font-family="Helvetica,sans-Serif" font-size="14.00" fill="#e6e6e6"> &#160;&#160;&#160;∈ {ACTIVE, TRIAL, SUSPENDED, CHURNED}</text>
</g>
<!-- start&#45;&gt;req -->
<g id="edge1" class="edge">
<title>start&#45;&gt;req</title>
<path fill="none" stroke="#7e8aa3" d="M291.12,-1034.83C291.12,-1023.22 291.12,-1008.73 291.12,-994.01"/>
<polygon fill="#7e8aa3" stroke="#7e8aa3" points="293.93,-994.36 291.13,-986.36 288.33,-994.36 293.93,-994.36"/>
</g>
<!-- end -->
<g id="node2" class="node">
<title>end</title>
<ellipse fill="#7a1f2b" stroke="#3a4252" stroke-width="1.2" cx="1689.12" cy="-29.2" rx="25.2" ry="25.2"/>
<ellipse fill="none" stroke="#3a4252" stroke-width="1.2" cx="1689.12" cy="-29.2" rx="29.2" ry="29.2"/>
<text xml:space="preserve" text-anchor="middle" x="1689.12" y="-24.53" font-family="Helvetica,sans-Serif" font-size="14.00" fill="#ffffff">END</text>
</g>
<!-- val -->
<g id="node4" class="node">
<title>val</title>
<path fill="#7a1f2b" stroke="#3a4252" stroke-width="1.2" d="M449.5,-220.9C449.5,-220.9 114.75,-220.9 114.75,-220.9 108.75,-220.9 102.75,-214.9 102.75,-208.9 102.75,-208.9 102.75,-190.4 102.75,-190.4 102.75,-184.4 108.75,-178.4 114.75,-178.4 114.75,-178.4 449.5,-178.4 449.5,-178.4 455.5,-178.4 461.5,-184.4 461.5,-190.4 461.5,-190.4 461.5,-208.9 461.5,-208.9 461.5,-214.9 455.5,-220.9 449.5,-220.9"/>
<text xml:space="preserve" text-anchor="middle" x="282.12" y="-203.6" font-family="Helvetica,sans-Serif" font-size="14.00" fill="#ffffff">422 VALIDATION_ERROR</text>
<text xml:space="preserve" text-anchor="middle" x="282.12" y="-186.35" font-family="Helvetica,sans-Serif" font-size="14.00" fill="#ffffff">(page=0, page_size=999, status_filter=&#39;BOGUS&#39;)</text>
</g>
<!-- req&#45;&gt;val -->
<g id="edge2" class="edge">
<title>req&#45;&gt;val</title>
<path fill="none" stroke="#c95a5a" d="M290.33,-855.27C288.46,-705.93 283.85,-337.95 282.5,-230.54"/>
<polygon fill="#c95a5a" stroke="#c95a5a" points="285.3,-230.73 282.4,-222.77 279.7,-230.8 285.3,-230.73"/>
<text xml:space="preserve" text-anchor="middle" x="332.21" y="-658.65" font-family="Helvetica,sans-Serif" font-size="10.00" fill="#9aa3b2">any param invalid</text>
</g>
<!-- svc -->
<g id="node5" class="node">
<title>svc</title>
<path fill="#1a3a2a" stroke="#3a4252" stroke-width="1.2" d="M862.5,-958.52C862.5,-958.52 701.75,-958.52 701.75,-958.52 695.75,-958.52 689.75,-952.52 689.75,-946.52 689.75,-946.52 689.75,-893.52 689.75,-893.52 689.75,-887.52 695.75,-881.52 701.75,-881.52 701.75,-881.52 862.5,-881.52 862.5,-881.52 868.5,-881.52 874.5,-887.52 874.5,-893.52 874.5,-893.52 874.5,-946.52 874.5,-946.52 874.5,-952.52 868.5,-958.52 862.5,-958.52"/>
<text xml:space="preserve" text-anchor="middle" x="782.12" y="-941.23" font-family="Helvetica,sans-Serif" font-size="14.00" fill="#e6e6e6">list_agencies(session,</text>
<text xml:space="preserve" text-anchor="middle" x="782.12" y="-923.98" font-family="Helvetica,sans-Serif" font-size="14.00" fill="#e6e6e6"> &#160;page, page_size,</text>
<text xml:space="preserve" text-anchor="middle" x="782.12" y="-906.73" font-family="Helvetica,sans-Serif" font-size="14.00" fill="#e6e6e6"> &#160;include_deleted=False,</text>
<text xml:space="preserve" text-anchor="middle" x="782.12" y="-889.48" font-family="Helvetica,sans-Serif" font-size="14.00" fill="#e6e6e6"> &#160;status_filter=None)</text>
</g>
<!-- req&#45;&gt;svc -->
<g id="edge3" class="edge">
<title>req&#45;&gt;svc</title>
<path fill="none" stroke="#5fa86f" d="M582.77,-920.02C617.38,-920.02 650.72,-920.02 679.91,-920.02"/>
<polygon fill="#5fa86f" stroke="#5fa86f" points="679.72,-922.83 687.72,-920.03 679.72,-917.23 679.72,-922.83"/>
<text xml:space="preserve" text-anchor="middle" x="636" y="-926.27" font-family="Helvetica,sans-Serif" font-size="10.00" fill="#9aa3b2">Pydantic OK</text>
</g>
<!-- filt_active -->
<g id="node6" class="node">
<title>filt_active</title>
<polygon fill="#22273a" stroke="#3a4252" stroke-width="1.2" points="624.88,-778.77 331.38,-778.77 331.38,-719.02 630.88,-719.02 630.88,-772.77 624.88,-778.77"/>
<polyline fill="none" stroke="#3a4252" stroke-width="1.2" points="624.88,-778.77 624.88,-772.77"/>
<polyline fill="none" stroke="#3a4252" stroke-width="1.2" points="630.88,-772.77 624.88,-772.77"/>
<text xml:space="preserve" text-anchor="middle" x="481.12" y="-761.48" font-family="Helvetica,sans-Serif" font-size="14.00" fill="#e6e6e6">filter 1 — soft&#45;delete</text>
<text xml:space="preserve" text-anchor="middle" x="481.12" y="-744.23" font-family="Helvetica,sans-Serif" font-size="14.00" fill="#e6e6e6">if not include_deleted:</text>
<text xml:space="preserve" text-anchor="middle" x="481.12" y="-726.98" font-family="Helvetica,sans-Serif" font-size="14.00" fill="#e6e6e6"> &#160;base = base.where(deleted_at IS NULL)</text>
</g>
<!-- svc&#45;&gt;filt_active -->
<g id="edge4" class="edge">
<title>svc&#45;&gt;filt_active</title>
<path fill="none" stroke="#7e8aa3" d="M714.57,-881.07C662.69,-851.92 591.68,-812.02 541.64,-783.9"/>
<polygon fill="#7e8aa3" stroke="#7e8aa3" points="543.15,-781.54 534.8,-780.06 540.41,-786.42 543.15,-781.54"/>
</g>
<!-- filt_status -->
<g id="node7" class="node">
<title>filt_status</title>
<polygon fill="#22273a" stroke="#3a4252" stroke-width="1.2" points="983.38,-778.77 662.88,-778.77 662.88,-719.02 989.38,-719.02 989.38,-772.77 983.38,-778.77"/>
<polyline fill="none" stroke="#3a4252" stroke-width="1.2" points="983.38,-778.77 983.38,-772.77"/>
<polyline fill="none" stroke="#3a4252" stroke-width="1.2" points="989.38,-772.77 983.38,-772.77"/>
<text xml:space="preserve" text-anchor="middle" x="826.12" y="-761.48" font-family="Helvetica,sans-Serif" font-size="14.00" fill="#e6e6e6">filter 2 — status</text>
<text xml:space="preserve" text-anchor="middle" x="826.12" y="-744.23" font-family="Helvetica,sans-Serif" font-size="14.00" fill="#e6e6e6">if status_filter is not None:</text>
<text xml:space="preserve" text-anchor="middle" x="826.12" y="-726.98" font-family="Helvetica,sans-Serif" font-size="14.00" fill="#e6e6e6"> &#160;base = base.where(status == status_filter)</text>
</g>
<!-- svc&#45;&gt;filt_status -->
<g id="edge5" class="edge">
<title>svc&#45;&gt;filt_status</title>
<path fill="none" stroke="#7e8aa3" d="M792,-881.07C799.19,-853.42 808.9,-816.1 816.12,-788.34"/>
<polygon fill="#7e8aa3" stroke="#7e8aa3" points="818.79,-789.23 818.09,-780.78 813.37,-787.82 818.79,-789.23"/>
</g>
<!-- rls_note -->
<g id="node10" class="node">
<title>rls_note</title>
<polygon fill="#22273a" stroke="#3a4252" stroke-width="1.2" points="1342.38,-804.65 1021.88,-804.65 1021.88,-693.15 1348.38,-693.15 1348.38,-798.65 1342.38,-804.65"/>
<polyline fill="none" stroke="#3a4252" stroke-width="1.2" points="1342.38,-804.65 1342.38,-798.65"/>
<polyline fill="none" stroke="#3a4252" stroke-width="1.2" points="1348.38,-798.65 1342.38,-798.65"/>
<text xml:space="preserve" text-anchor="middle" x="1185.12" y="-787.35" font-family="Helvetica,sans-Serif" font-size="14.00" fill="#e6e6e6">RLS bypass</text>
<text xml:space="preserve" text-anchor="middle" x="1185.12" y="-770.1" font-family="Helvetica,sans-Serif" font-size="14.00" fill="#e6e6e6">list_agencies runs as SUPER_ADMIN</text>
<text xml:space="preserve" text-anchor="middle" x="1185.12" y="-752.85" font-family="Helvetica,sans-Serif" font-size="14.00" fill="#e6e6e6">→ app.current_user_id = SUPER_ADMIN user</text>
<text xml:space="preserve" text-anchor="middle" x="1185.12" y="-735.6" font-family="Helvetica,sans-Serif" font-size="14.00" fill="#e6e6e6">→ app.current_agency_id is irrelevant</text>
<text xml:space="preserve" text-anchor="middle" x="1185.12" y="-718.35" font-family="Helvetica,sans-Serif" font-size="14.00" fill="#e6e6e6">→ RLS policies permit full table scan</text>
<text xml:space="preserve" text-anchor="middle" x="1185.12" y="-701.1" font-family="Helvetica,sans-Serif" font-size="14.00" fill="#e6e6e6">(per the agencies table policy)</text>
</g>
<!-- svc&#45;&gt;rls_note -->
<g id="edge6" class="edge">
<title>svc&#45;&gt;rls_note</title>
<path fill="none" stroke="#7e8aa3" d="M872.82,-880.96C923.49,-859.7 987.72,-832.74 1044.74,-808.81"/>
<polygon fill="#7e8aa3" stroke="#7e8aa3" points="1045.77,-811.42 1052.07,-805.74 1043.61,-806.25 1045.77,-811.42"/>
</g>
<!-- count -->
<g id="node8" class="node">
<title>count</title>
<path fill="#1a3a2a" stroke="#3a4252" stroke-width="1.2" d="M673.5,-512.77C673.5,-512.77 392.75,-512.77 392.75,-512.77 386.75,-512.77 380.75,-506.77 380.75,-500.77 380.75,-500.77 380.75,-482.27 380.75,-482.27 380.75,-476.27 386.75,-470.27 392.75,-470.27 392.75,-470.27 673.5,-470.27 673.5,-470.27 679.5,-470.27 685.5,-476.27 685.5,-482.27 685.5,-482.27 685.5,-500.77 685.5,-500.77 685.5,-506.77 679.5,-512.77 673.5,-512.77"/>
<text xml:space="preserve" text-anchor="middle" x="533.12" y="-495.47" font-family="Helvetica,sans-Serif" font-size="14.00" fill="#e6e6e6">total = SELECT count(*) FROM (base) sub</text>
<text xml:space="preserve" text-anchor="middle" x="533.12" y="-478.22" font-family="Helvetica,sans-Serif" font-size="14.00" fill="#e6e6e6"> &#160;→ int (bypasses ORDER BY for speed)</text>
</g>
<!-- filt_active&#45;&gt;count -->
<g id="edge7" class="edge">
<title>filt_active&#45;&gt;count</title>
<path fill="none" stroke="#7e8aa3" stroke-dasharray="1,5" d="M487.09,-718.61C497.07,-669.6 517.04,-571.53 527.07,-522.24"/>
<polygon fill="#7e8aa3" stroke="#7e8aa3" points="529.79,-522.94 528.64,-514.55 524.3,-521.83 529.79,-522.94"/>
</g>
<!-- filt_status&#45;&gt;count -->
<g id="edge8" class="edge">
<title>filt_status&#45;&gt;count</title>
<path fill="none" stroke="#7e8aa3" stroke-dasharray="1,5" d="M792.51,-718.61C735.12,-668.58 619.05,-567.42 563.76,-519.22"/>
<polygon fill="#7e8aa3" stroke="#7e8aa3" points="565.7,-517.2 557.83,-514.06 562.02,-521.42 565.7,-517.2"/>
</g>
<!-- page -->
<g id="node9" class="node">
<title>page</title>
<path fill="#1a3a2a" stroke="#3a4252" stroke-width="1.2" d="M1356.25,-547.27C1356.25,-547.27 1152,-547.27 1152,-547.27 1146,-547.27 1140,-541.27 1140,-535.27 1140,-535.27 1140,-447.77 1140,-447.77 1140,-441.77 1146,-435.77 1152,-435.77 1152,-435.77 1356.25,-435.77 1356.25,-435.77 1362.25,-435.77 1368.25,-441.77 1368.25,-447.77 1368.25,-447.77 1368.25,-535.27 1368.25,-535.27 1368.25,-541.27 1362.25,-547.27 1356.25,-547.27"/>
<text xml:space="preserve" text-anchor="middle" x="1254.12" y="-529.98" font-family="Helvetica,sans-Serif" font-size="14.00" fill="#e6e6e6">offset = (page &#45; 1) * page_size</text>
<text xml:space="preserve" text-anchor="middle" x="1254.12" y="-512.73" font-family="Helvetica,sans-Serif" font-size="14.00" fill="#e6e6e6">rows = base</text>
<text xml:space="preserve" text-anchor="middle" x="1254.12" y="-495.47" font-family="Helvetica,sans-Serif" font-size="14.00" fill="#e6e6e6"> &#160;.order_by(name, id)</text>
<text xml:space="preserve" text-anchor="middle" x="1254.12" y="-478.22" font-family="Helvetica,sans-Serif" font-size="14.00" fill="#e6e6e6"> &#160;.offset(offset)</text>
<text xml:space="preserve" text-anchor="middle" x="1254.12" y="-460.97" font-family="Helvetica,sans-Serif" font-size="14.00" fill="#e6e6e6"> &#160;.limit(page_size)</text>
<text xml:space="preserve" text-anchor="middle" x="1254.12" y="-443.72" font-family="Helvetica,sans-Serif" font-size="14.00" fill="#e6e6e6"> &#160;.all()</text>
</g>
<!-- count&#45;&gt;page -->
<g id="edge9" class="edge">
<title>count&#45;&gt;page</title>
<path fill="none" stroke="#5fa86f" d="M551.18,-513.33C579.48,-545.69 637.73,-605.29 702.12,-630.4 806.7,-671.18 842.32,-643.59 954.5,-639.77 1015.77,-637.69 1035.38,-653.62 1092.12,-630.4 1132.77,-613.77 1170.5,-582.77 1199.31,-554.27"/>
<polygon fill="#5fa86f" stroke="#5fa86f" points="1200.97,-556.57 1204.63,-548.92 1197,-552.62 1200.97,-556.57"/>
<text xml:space="preserve" text-anchor="middle" x="912.12" y="-658.65" font-family="Helvetica,sans-Serif" font-size="10.00" fill="#9aa3b2">with filtered base</text>
</g>
<!-- shape -->
<g id="node11" class="node">
<title>shape</title>
<path fill="#1a3a2a" stroke="#3a4252" stroke-width="1.2" d="M1453.75,-289.9C1453.75,-289.9 1054.5,-289.9 1054.5,-289.9 1048.5,-289.9 1042.5,-283.9 1042.5,-277.9 1042.5,-277.9 1042.5,-121.4 1042.5,-121.4 1042.5,-115.4 1048.5,-109.4 1054.5,-109.4 1054.5,-109.4 1453.75,-109.4 1453.75,-109.4 1459.75,-109.4 1465.75,-115.4 1465.75,-121.4 1465.75,-121.4 1465.75,-277.9 1465.75,-277.9 1465.75,-283.9 1459.75,-289.9 1453.75,-289.9"/>
<text xml:space="preserve" text-anchor="middle" x="1254.12" y="-272.6" font-family="Helvetica,sans-Serif" font-size="14.00" fill="#e6e6e6">data = [AgencyResponse.model_validate(r) for r in rows]</text>
<text xml:space="preserve" text-anchor="middle" x="1254.12" y="-255.35" font-family="Helvetica,sans-Serif" font-size="14.00" fill="#e6e6e6">body = build_offset_response(data, total, page, page_size)</text>
<text xml:space="preserve" text-anchor="middle" x="1254.12" y="-238.1" font-family="Helvetica,sans-Serif" font-size="14.00" fill="#e6e6e6">→ returns:</text>
<text xml:space="preserve" text-anchor="middle" x="1254.12" y="-220.85" font-family="Helvetica,sans-Serif" font-size="14.00" fill="#e6e6e6"> &#160;{</text>
<text xml:space="preserve" text-anchor="middle" x="1254.12" y="-203.6" font-family="Helvetica,sans-Serif" font-size="14.00" fill="#e6e6e6"> &#160;&#160;&#160;data: [...],</text>
<text xml:space="preserve" text-anchor="middle" x="1254.12" y="-186.35" font-family="Helvetica,sans-Serif" font-size="14.00" fill="#e6e6e6"> &#160;&#160;&#160;pagination: {</text>
<text xml:space="preserve" text-anchor="middle" x="1254.12" y="-169.1" font-family="Helvetica,sans-Serif" font-size="14.00" fill="#e6e6e6"> &#160;&#160;&#160;&#160;&#160;page, page_size, total,</text>
<text xml:space="preserve" text-anchor="middle" x="1254.12" y="-151.85" font-family="Helvetica,sans-Serif" font-size="14.00" fill="#e6e6e6"> &#160;&#160;&#160;&#160;&#160;total_pages</text>
<text xml:space="preserve" text-anchor="middle" x="1254.12" y="-134.6" font-family="Helvetica,sans-Serif" font-size="14.00" fill="#e6e6e6"> &#160;&#160;&#160;}</text>
<text xml:space="preserve" text-anchor="middle" x="1254.12" y="-117.35" font-family="Helvetica,sans-Serif" font-size="14.00" fill="#e6e6e6"> &#160;}</text>
</g>
<!-- page&#45;&gt;shape -->
<g id="edge10" class="edge">
<title>page&#45;&gt;shape</title>
<path fill="none" stroke="#5fa86f" d="M1254.12,-435.32C1254.12,-397.05 1254.12,-345.03 1254.12,-299.69"/>
<polygon fill="#5fa86f" stroke="#5fa86f" points="1256.93,-299.93 1254.13,-291.93 1251.33,-299.93 1256.93,-299.93"/>
<text xml:space="preserve" text-anchor="middle" x="1283.75" y="-318.15" font-family="Helvetica,sans-Serif" font-size="10.00" fill="#9aa3b2">(rows, total)</text>
</g>
<!-- resp -->
<g id="node12" class="node">
<title>resp</title>
<path fill="#0d6e3a" stroke="#3a4252" stroke-width="1.2" d="M1828.38,-289.9C1828.38,-289.9 1549.88,-289.9 1549.88,-289.9 1543.88,-289.9 1537.88,-283.9 1537.88,-277.9 1537.88,-277.9 1537.88,-121.4 1537.88,-121.4 1537.88,-115.4 1543.88,-109.4 1549.88,-109.4 1549.88,-109.4 1828.38,-109.4 1828.38,-109.4 1834.38,-109.4 1840.38,-115.4 1840.38,-121.4 1840.38,-121.4 1840.38,-277.9 1840.38,-277.9 1840.38,-283.9 1834.38,-289.9 1828.38,-289.9"/>
<text xml:space="preserve" text-anchor="middle" x="1689.12" y="-272.6" font-family="Helvetica,sans-Serif" font-size="14.00" fill="#ffffff">200 OK</text>
<text xml:space="preserve" text-anchor="middle" x="1689.12" y="-255.35" font-family="Helvetica,sans-Serif" font-size="14.00" fill="#ffffff">{</text>
<text xml:space="preserve" text-anchor="middle" x="1689.12" y="-238.1" font-family="Helvetica,sans-Serif" font-size="14.00" fill="#ffffff"> &#160;data: [</text>
<text xml:space="preserve" text-anchor="middle" x="1689.12" y="-220.85" font-family="Helvetica,sans-Serif" font-size="14.00" fill="#ffffff"> &#160;&#160;&#160;AgencyResponse, AgencyResponse, ...</text>
<text xml:space="preserve" text-anchor="middle" x="1689.12" y="-203.6" font-family="Helvetica,sans-Serif" font-size="14.00" fill="#ffffff"> &#160;],</text>
<text xml:space="preserve" text-anchor="middle" x="1689.12" y="-186.35" font-family="Helvetica,sans-Serif" font-size="14.00" fill="#ffffff"> &#160;pagination: {</text>
<text xml:space="preserve" text-anchor="middle" x="1689.12" y="-169.1" font-family="Helvetica,sans-Serif" font-size="14.00" fill="#ffffff"> &#160;&#160;&#160;page: 1, page_size: 20,</text>
<text xml:space="preserve" text-anchor="middle" x="1689.12" y="-151.85" font-family="Helvetica,sans-Serif" font-size="14.00" fill="#ffffff"> &#160;&#160;&#160;total: 47, total_pages: 3</text>
<text xml:space="preserve" text-anchor="middle" x="1689.12" y="-134.6" font-family="Helvetica,sans-Serif" font-size="14.00" fill="#ffffff"> &#160;}</text>
<text xml:space="preserve" text-anchor="middle" x="1689.12" y="-117.35" font-family="Helvetica,sans-Serif" font-size="14.00" fill="#ffffff">}</text>
</g>
<!-- shape&#45;&gt;resp -->
<g id="edge11" class="edge">
<title>shape&#45;&gt;resp</title>
<path fill="none" stroke="#5fa86f" d="M1466.21,-199.65C1487.08,-199.65 1508.02,-199.65 1528.26,-199.65"/>
<polygon fill="#5fa86f" stroke="#5fa86f" points="1527.99,-202.45 1535.99,-199.65 1527.99,-196.85 1527.99,-202.45"/>
<text xml:space="preserve" text-anchor="middle" x="1501.81" y="-205.9" font-family="Helvetica,sans-Serif" font-size="10.00" fill="#9aa3b2">serialise</text>
</g>
<!-- resp&#45;&gt;end -->
<g id="edge12" class="edge">
<title>resp&#45;&gt;end</title>
<path fill="none" stroke="#7e8aa3" d="M1689.12,-109C1689.12,-94.62 1689.12,-80.44 1689.12,-68.17"/>
<polygon fill="#7e8aa3" stroke="#7e8aa3" points="1691.93,-68.28 1689.13,-60.28 1686.33,-68.28 1691.93,-68.28"/>
</g>
<!-- matrix -->
<g id="node13" class="node">
<title>matrix</title>
<polygon fill="#22273a" stroke="#3a4252" stroke-width="1.2" points="1070.5,-630.4 717.75,-630.4 717.75,-352.65 1076.5,-352.65 1076.5,-624.4 1070.5,-630.4"/>
<polyline fill="none" stroke="#3a4252" stroke-width="1.2" points="1070.5,-630.4 1070.5,-624.4"/>
<polyline fill="none" stroke="#3a4252" stroke-width="1.2" points="1076.5,-624.4 1070.5,-624.4"/>
<text xml:space="preserve" text-anchor="middle" x="897.12" y="-613.1" font-family="Helvetica,sans-Serif" font-size="14.00" fill="#e6e6e6">Filter matrix (output)</text>
<text xml:space="preserve" text-anchor="middle" x="897.12" y="-579.85" font-family="Helvetica,sans-Serif" font-size="14.00" fill="#e6e6e6">include_deleted=false, status_filter=null</text>
<text xml:space="preserve" text-anchor="middle" x="897.12" y="-562.6" font-family="Helvetica,sans-Serif" font-size="14.00" fill="#e6e6e6"> &#160;→ all ACTIVE/TRIAL/CHURNED rows, not deleted</text>
<text xml:space="preserve" text-anchor="middle" x="897.12" y="-529.35" font-family="Helvetica,sans-Serif" font-size="14.00" fill="#e6e6e6">include_deleted=false, status_filter=SUSPENDED</text>
<text xml:space="preserve" text-anchor="middle" x="897.12" y="-512.1" font-family="Helvetica,sans-Serif" font-size="14.00" fill="#e6e6e6"> &#160;→ SUSPENDED rows only, not deleted</text>
<text xml:space="preserve" text-anchor="middle" x="897.12" y="-478.85" font-family="Helvetica,sans-Serif" font-size="14.00" fill="#e6e6e6">include_deleted=true, &#160;status_filter=null</text>
<text xml:space="preserve" text-anchor="middle" x="897.12" y="-461.6" font-family="Helvetica,sans-Serif" font-size="14.00" fill="#e6e6e6"> &#160;→ all rows incl. deleted (deleted_at NOT NULL)</text>
<text xml:space="preserve" text-anchor="middle" x="897.12" y="-428.35" font-family="Helvetica,sans-Serif" font-size="14.00" fill="#e6e6e6">include_deleted=true, &#160;status_filter=CHURNED</text>
<text xml:space="preserve" text-anchor="middle" x="897.12" y="-411.1" font-family="Helvetica,sans-Serif" font-size="14.00" fill="#e6e6e6"> &#160;→ CHURNED rows incl. soft&#45;deleted ones</text>
<text xml:space="preserve" text-anchor="middle" x="897.12" y="-377.85" font-family="Helvetica,sans-Serif" font-size="14.00" fill="#e6e6e6">Valid status_filter values:</text>
<text xml:space="preserve" text-anchor="middle" x="897.12" y="-360.6" font-family="Helvetica,sans-Serif" font-size="14.00" fill="#e6e6e6"> &#160;ACTIVE | TRIAL | SUSPENDED | CHURNED</text>
</g>
<!-- matrix&#45;&gt;page -->
</g>
</svg>
