<?xml version="1.0" encoding="UTF-8" standalone="no"?>
<!DOCTYPE svg PUBLIC "-//W3C//DTD SVG 1.1//EN"
 "http://www.w3.org/Graphics/SVG/1.1/DTD/svg11.dtd">
<!-- Generated by graphviz version 14.1.2 (0)
 -->
<!-- Title: agencies_delete_flow Pages: 1 -->
<svg width="2122pt" height="1015pt"
 viewBox="0.00 0.00 2122.00 1015.00" xmlns="http://www.w3.org/2000/svg" xmlns:xlink="http://www.w3.org/1999/xlink">
<g id="graph0" class="graph" transform="scale(1 1) rotate(0) translate(4 1011.3)">
<title>agencies_delete_flow</title>
<polygon fill="#0f1115" stroke="none" points="-4,4 -4,-1011.3 2117.75,-1011.3 2117.75,4 -4,4"/>
<text xml:space="preserve" text-anchor="start" x="913.25" y="-991" font-family="Helvetica,sans-Serif" font-weight="bold" font-size="14.00" fill="#e6e6e6">agencies / soft&#45;delete + restore flow</text>
<text xml:space="preserve" text-anchor="start" x="876.88" y="-977" font-family="Helvetica,sans-Serif" font-size="14.00" fill="#e6e6e6"> &#160;&#160;&#160;&#160;&#160;&#160;&#160;&#160;&#160;&#160;</text>
<text xml:space="preserve" text-anchor="start" x="926.38" y="-977" font-family="Helvetica,sans-Serif" font-size="11.00" fill="#9aa3b2">DELETE → read default 404 → read include_deleted=true</text>
<!-- start -->
<g id="node1" class="node">
<title>start</title>
<ellipse fill="#0d6e3a" stroke="#3a4252" stroke-width="1.2" cx="385.5" cy="-946.1" rx="25.2" ry="25.2"/>
<text xml:space="preserve" text-anchor="middle" x="385.5" y="-941.43" font-family="Helvetica,sans-Serif" font-size="14.00" fill="#ffffff">START</text>
</g>
<!-- pre -->
<g id="node3" class="node">
<title>pre</title>
<path fill="#1c2540" stroke="#3a4252" stroke-width="1.2" d="M462.5,-844.02C462.5,-844.02 308.5,-844.02 308.5,-844.02 302.5,-844.02 296.5,-838.02 296.5,-832.02 296.5,-832.02 296.5,-744.52 296.5,-744.52 296.5,-738.52 302.5,-732.52 308.5,-732.52 308.5,-732.52 462.5,-732.52 462.5,-732.52 468.5,-732.52 474.5,-738.52 474.5,-744.52 474.5,-744.52 474.5,-832.02 474.5,-832.02 474.5,-838.02 468.5,-844.02 462.5,-844.02"/>
<text xml:space="preserve" text-anchor="middle" x="385.5" y="-826.73" font-family="Helvetica,sans-Serif" font-size="14.00" fill="#e6e6e6">PRE&#45;STATE</text>
<text xml:space="preserve" text-anchor="middle" x="385.5" y="-809.48" font-family="Helvetica,sans-Serif" font-size="14.00" fill="#e6e6e6">agency = {</text>
<text xml:space="preserve" text-anchor="middle" x="385.5" y="-792.23" font-family="Helvetica,sans-Serif" font-size="14.00" fill="#e6e6e6"> &#160;id, name,</text>
<text xml:space="preserve" text-anchor="middle" x="385.5" y="-774.98" font-family="Helvetica,sans-Serif" font-size="14.00" fill="#e6e6e6"> &#160;status=&#39;SUSPENDED&#39;,</text>
<text xml:space="preserve" text-anchor="middle" x="385.5" y="-757.73" font-family="Helvetica,sans-Serif" font-size="14.00" fill="#e6e6e6"> &#160;deleted_at=NULL</text>
<text xml:space="preserve" text-anchor="middle" x="385.5" y="-740.48" font-family="Helvetica,sans-Serif" font-size="14.00" fill="#e6e6e6">}</text>
</g>
<!-- start&#45;&gt;pre -->
<g id="edge1" class="edge">
<title>start&#45;&gt;pre</title>
<path fill="none" stroke="#7e8aa3" d="M385.5,-920.41C385.5,-902.45 385.5,-877.27 385.5,-853.77"/>
<polygon fill="#7e8aa3" stroke="#7e8aa3" points="388.3,-854.04 385.5,-846.04 382.7,-854.04 388.3,-854.04"/>
</g>
<!-- end -->
<g id="node2" class="node">
<title>end</title>
<ellipse fill="#7a1f2b" stroke="#3a4252" stroke-width="1.2" cx="1971.5" cy="-29.2" rx="25.2" ry="25.2"/>
<ellipse fill="none" stroke="#3a4252" stroke-width="1.2" cx="1971.5" cy="-29.2" rx="29.2" ry="29.2"/>
<text xml:space="preserve" text-anchor="middle" x="1971.5" y="-24.53" font-family="Helvetica,sans-Serif" font-size="14.00" fill="#ffffff">END</text>
</g>
<!-- del_req -->
<g id="node4" class="node">
<title>del_req</title>
<path fill="#1a3a2a" stroke="#3a4252" stroke-width="1.2" d="M772.62,-809.52C772.62,-809.52 550.38,-809.52 550.38,-809.52 544.38,-809.52 538.38,-803.52 538.38,-797.52 538.38,-797.52 538.38,-779.02 538.38,-779.02 538.38,-773.02 544.38,-767.02 550.38,-767.02 550.38,-767.02 772.62,-767.02 772.62,-767.02 778.62,-767.02 784.62,-773.02 784.62,-779.02 784.62,-779.02 784.62,-797.52 784.62,-797.52 784.62,-803.52 778.62,-809.52 772.62,-809.52"/>
<text xml:space="preserve" text-anchor="middle" x="661.5" y="-792.23" font-family="Helvetica,sans-Serif" font-size="14.00" fill="#e6e6e6">STEP 1 — DELETE /agencies/{id}</text>
<text xml:space="preserve" text-anchor="middle" x="661.5" y="-774.98" font-family="Helvetica,sans-Serif" font-size="14.00" fill="#e6e6e6">(no body)</text>
</g>
<!-- pre&#45;&gt;del_req -->
<g id="edge2" class="edge">
<title>pre&#45;&gt;del_req</title>
<path fill="none" stroke="#7e8aa3" d="M474.98,-788.27C492.87,-788.27 510.76,-788.27 528.65,-788.27"/>
<polygon fill="#7e8aa3" stroke="#7e8aa3" points="528.49,-791.08 536.49,-788.28 528.49,-785.48 528.49,-791.08"/>
</g>
<!-- del_svc -->
<g id="node5" class="node">
<title>del_svc</title>
<path fill="#1a3a2a" stroke="#3a4252" stroke-width="1.2" d="M1229.12,-869.9C1229.12,-869.9 907.88,-869.9 907.88,-869.9 901.88,-869.9 895.88,-863.9 895.88,-857.9 895.88,-857.9 895.88,-718.65 895.88,-718.65 895.88,-712.65 901.88,-706.65 907.88,-706.65 907.88,-706.65 1229.12,-706.65 1229.12,-706.65 1235.12,-706.65 1241.12,-712.65 1241.12,-718.65 1241.12,-718.65 1241.12,-857.9 1241.12,-857.9 1241.12,-863.9 1235.12,-869.9 1229.12,-869.9"/>
<text xml:space="preserve" text-anchor="middle" x="1068.5" y="-852.6" font-family="Helvetica,sans-Serif" font-size="14.00" fill="#e6e6e6">soft_delete_agency(session, agency_id)</text>
<text xml:space="preserve" text-anchor="middle" x="1068.5" y="-835.35" font-family="Helvetica,sans-Serif" font-size="14.00" fill="#e6e6e6"> &#160;1. _get_agency_or_404(include_deleted=True)</text>
<text xml:space="preserve" text-anchor="middle" x="1068.5" y="-818.1" font-family="Helvetica,sans-Serif" font-size="14.00" fill="#e6e6e6"> &#160;&#160;&#160;&#160;→ find even if previously deleted</text>
<text xml:space="preserve" text-anchor="middle" x="1068.5" y="-800.85" font-family="Helvetica,sans-Serif" font-size="14.00" fill="#e6e6e6"> &#160;2. if agency.deleted_at is None:</text>
<text xml:space="preserve" text-anchor="middle" x="1068.5" y="-783.6" font-family="Helvetica,sans-Serif" font-size="14.00" fill="#e6e6e6"> &#160;&#160;&#160;&#160;&#160;&#160;agency.deleted_at = datetime.now(UTC)</text>
<text xml:space="preserve" text-anchor="middle" x="1068.5" y="-766.35" font-family="Helvetica,sans-Serif" font-size="14.00" fill="#e6e6e6"> &#160;3. flush()</text>
<text xml:space="preserve" text-anchor="middle" x="1068.5" y="-749.1" font-family="Helvetica,sans-Serif" font-size="14.00" fill="#e6e6e6">Idempotent: deleting an already&#45;deleted</text>
<text xml:space="preserve" text-anchor="middle" x="1068.5" y="-731.85" font-family="Helvetica,sans-Serif" font-size="14.00" fill="#e6e6e6">row returns the same row without</text>
<text xml:space="preserve" text-anchor="middle" x="1068.5" y="-714.6" font-family="Helvetica,sans-Serif" font-size="14.00" fill="#e6e6e6">re&#45;stamping deleted_at</text>
</g>
<!-- del_req&#45;&gt;del_svc -->
<g id="edge3" class="edge">
<title>del_req&#45;&gt;del_svc</title>
<path fill="none" stroke="#5fa86f" d="M784.99,-788.27C816.99,-788.27 852.12,-788.27 886.43,-788.27"/>
<polygon fill="#5fa86f" stroke="#5fa86f" points="886.1,-791.08 894.1,-788.28 886.1,-785.48 886.1,-791.08"/>
<text xml:space="preserve" text-anchor="middle" x="840.25" y="-794.52" font-family="Helvetica,sans-Serif" font-size="10.00" fill="#9aa3b2">path param uuid</text>
</g>
<!-- db_del -->
<g id="node6" class="node">
<title>db_del</title>
<polygon fill="#22273a" stroke="#3a4252" stroke-width="1.2" points="909.62,-643.9 597.38,-643.9 597.38,-532.4 915.62,-532.4 915.62,-637.9 909.62,-643.9"/>
<polyline fill="none" stroke="#3a4252" stroke-width="1.2" points="909.62,-643.9 909.62,-637.9"/>
<polyline fill="none" stroke="#3a4252" stroke-width="1.2" points="915.62,-637.9 909.62,-637.9"/>
<text xml:space="preserve" text-anchor="middle" x="756.5" y="-626.6" font-family="Helvetica,sans-Serif" font-size="14.00" fill="#e6e6e6">UPDATE agencies</text>
<text xml:space="preserve" text-anchor="middle" x="756.5" y="-609.35" font-family="Helvetica,sans-Serif" font-size="14.00" fill="#e6e6e6"> &#160;SET deleted_at = NOW()</text>
<text xml:space="preserve" text-anchor="middle" x="756.5" y="-592.1" font-family="Helvetica,sans-Serif" font-size="14.00" fill="#e6e6e6"> &#160;WHERE id = :id</text>
<text xml:space="preserve" text-anchor="middle" x="756.5" y="-574.85" font-family="Helvetica,sans-Serif" font-size="14.00" fill="#e6e6e6">Row stays in DB — preserves FK references</text>
<text xml:space="preserve" text-anchor="middle" x="756.5" y="-557.6" font-family="Helvetica,sans-Serif" font-size="14.00" fill="#e6e6e6">from staff/patient/guardian profiles,</text>
<text xml:space="preserve" text-anchor="middle" x="756.5" y="-540.35" font-family="Helvetica,sans-Serif" font-size="14.00" fill="#e6e6e6">appointments, visits, audit_logs</text>
</g>
<!-- del_svc&#45;&gt;db_del -->
<g id="edge5" class="edge">
<title>del_svc&#45;&gt;db_del</title>
<path fill="none" stroke="#7e8aa3" stroke-dasharray="1,5" d="M928.87,-706.12C898.78,-687.25 867.88,-667.48 840.67,-649.68"/>
<polygon fill="#7e8aa3" stroke="#7e8aa3" points="842.22,-647.35 833.99,-645.3 839.15,-652.03 842.22,-647.35"/>
</g>
<!-- audit_del -->
<g id="node7" class="node">
<title>audit_del</title>
<polygon fill="#22273a" stroke="#3a4252" stroke-width="1.2" points="1183.75,-626.65 947.25,-626.65 947.25,-549.65 1189.75,-549.65 1189.75,-620.65 1183.75,-626.65"/>
<polyline fill="none" stroke="#3a4252" stroke-width="1.2" points="1183.75,-626.65 1183.75,-620.65"/>
<polyline fill="none" stroke="#3a4252" stroke-width="1.2" points="1189.75,-620.65 1183.75,-620.65"/>
<text xml:space="preserve" text-anchor="middle" x="1068.5" y="-609.35" font-family="Helvetica,sans-Serif" font-size="14.00" fill="#e6e6e6">audit_logs row</text>
<text xml:space="preserve" text-anchor="middle" x="1068.5" y="-592.1" font-family="Helvetica,sans-Serif" font-size="14.00" fill="#e6e6e6"> &#160;action=DELETE</text>
<text xml:space="preserve" text-anchor="middle" x="1068.5" y="-574.85" font-family="Helvetica,sans-Serif" font-size="14.00" fill="#e6e6e6"> &#160;entity_type=&#39;AGENCY&#39;</text>
<text xml:space="preserve" text-anchor="middle" x="1068.5" y="-557.6" font-family="Helvetica,sans-Serif" font-size="14.00" fill="#e6e6e6"> &#160;new_data = {soft_delete: true}</text>
</g>
<!-- del_svc&#45;&gt;audit_del -->
<g id="edge6" class="edge">
<title>del_svc&#45;&gt;audit_del</title>
<path fill="none" stroke="#7e8aa3" stroke-dasharray="1,5" d="M1056.68,-706.12C1056.21,-682.39 1056.68,-657.25 1058.1,-636.38"/>
<polygon fill="#7e8aa3" stroke="#7e8aa3" points="1060.87,-636.82 1058.7,-628.63 1055.29,-636.38 1060.87,-636.82"/>
</g>
<!-- resp_del -->
<g id="node8" class="node">
<title>resp_del</title>
<path fill="#0d6e3a" stroke="#3a4252" stroke-width="1.2" d="M1335.25,-609.4C1335.25,-609.4 1233.75,-609.4 1233.75,-609.4 1227.75,-609.4 1221.75,-603.4 1221.75,-597.4 1221.75,-597.4 1221.75,-578.9 1221.75,-578.9 1221.75,-572.9 1227.75,-566.9 1233.75,-566.9 1233.75,-566.9 1335.25,-566.9 1335.25,-566.9 1341.25,-566.9 1347.25,-572.9 1347.25,-578.9 1347.25,-578.9 1347.25,-597.4 1347.25,-597.4 1347.25,-603.4 1341.25,-609.4 1335.25,-609.4"/>
<text xml:space="preserve" text-anchor="middle" x="1284.5" y="-592.1" font-family="Helvetica,sans-Serif" font-size="14.00" fill="#ffffff">204 No Content</text>
<text xml:space="preserve" text-anchor="middle" x="1284.5" y="-574.85" font-family="Helvetica,sans-Serif" font-size="14.00" fill="#ffffff">(empty body)</text>
</g>
<!-- del_svc&#45;&gt;resp_del -->
<g id="edge7" class="edge">
<title>del_svc&#45;&gt;resp_del</title>
<path fill="none" stroke="#5fa86f" d="M1156.98,-706.12C1192.12,-673.88 1230.12,-639.03 1255.41,-615.84"/>
<polygon fill="#5fa86f" stroke="#5fa86f" points="1257.07,-618.11 1261.07,-610.64 1253.29,-613.98 1257.07,-618.11"/>
<text xml:space="preserve" text-anchor="middle" x="1218.35" y="-672.15" font-family="Helvetica,sans-Serif" font-size="10.00" fill="#9aa3b2">commit()</text>
</g>
<!-- nf_del -->
<g id="node9" class="node">
<title>nf_del</title>
<path fill="#7a1f2b" stroke="#3a4252" stroke-width="1.2" d="M1502.12,-609.4C1502.12,-609.4 1390.88,-609.4 1390.88,-609.4 1384.88,-609.4 1378.88,-603.4 1378.88,-597.4 1378.88,-597.4 1378.88,-578.9 1378.88,-578.9 1378.88,-572.9 1384.88,-566.9 1390.88,-566.9 1390.88,-566.9 1502.12,-566.9 1502.12,-566.9 1508.12,-566.9 1514.12,-572.9 1514.12,-578.9 1514.12,-578.9 1514.12,-597.4 1514.12,-597.4 1514.12,-603.4 1508.12,-609.4 1502.12,-609.4"/>
<text xml:space="preserve" text-anchor="middle" x="1446.5" y="-592.1" font-family="Helvetica,sans-Serif" font-size="14.00" fill="#ffffff">404 NOT_FOUND</text>
<text xml:space="preserve" text-anchor="middle" x="1446.5" y="-574.85" font-family="Helvetica,sans-Serif" font-size="14.00" fill="#ffffff">(unknown id)</text>
</g>
<!-- del_svc&#45;&gt;nf_del -->
<g id="edge4" class="edge">
<title>del_svc&#45;&gt;nf_del</title>
<path fill="none" stroke="#c95a5a" d="M1241.66,-707.79C1282.17,-687.92 1324.78,-665.95 1363.5,-643.9 1378.94,-635.11 1395.38,-624.53 1409.53,-615.03"/>
<polygon fill="#c95a5a" stroke="#c95a5a" points="1410.82,-617.54 1415.87,-610.73 1407.68,-612.9 1410.82,-617.54"/>
<text xml:space="preserve" text-anchor="middle" x="1361.84" y="-672.15" font-family="Helvetica,sans-Serif" font-size="10.00" fill="#9aa3b2">agency_id missing</text>
</g>
<!-- db_del&#45;&gt;del_svc -->
<!-- audit_del&#45;&gt;del_svc -->
<!-- get_def -->
<g id="node10" class="node">
<title>get_def</title>
<path fill="#1a3a2a" stroke="#3a4252" stroke-width="1.2" d="M241,-429.65C241,-429.65 12,-429.65 12,-429.65 6,-429.65 0,-423.65 0,-417.65 0,-417.65 0,-399.15 0,-399.15 0,-393.15 6,-387.15 12,-387.15 12,-387.15 241,-387.15 241,-387.15 247,-387.15 253,-393.15 253,-399.15 253,-399.15 253,-417.65 253,-417.65 253,-423.65 247,-429.65 241,-429.65"/>
<text xml:space="preserve" text-anchor="middle" x="126.5" y="-412.35" font-family="Helvetica,sans-Serif" font-size="14.00" fill="#e6e6e6">STEP 2 — GET /agencies/{id}</text>
<text xml:space="preserve" text-anchor="middle" x="126.5" y="-395.1" font-family="Helvetica,sans-Serif" font-size="14.00" fill="#e6e6e6">(include_deleted defaults to False)</text>
</g>
<!-- resp_del&#45;&gt;get_def -->
<g id="edge8" class="edge">
<title>resp_del&#45;&gt;get_def</title>
<path fill="none" stroke="#7e8aa3" d="M1261.85,-566.38C1246.99,-554.11 1226.49,-539.62 1205.5,-532.4 1015.01,-466.91 496.88,-526.21 300.5,-481.4 255.98,-471.24 208.25,-450.74 174.06,-434.2"/>
<polygon fill="#7e8aa3" stroke="#7e8aa3" points="175.45,-431.76 167.03,-430.76 172.98,-436.79 175.45,-431.76"/>
</g>
<!-- list_default -->
<g id="node16" class="node">
<title>list_default</title>
<path fill="#1a3a2a" stroke="#3a4252" stroke-width="1.2" d="M1415.88,-220.9C1415.88,-220.9 1153.12,-220.9 1153.12,-220.9 1147.12,-220.9 1141.12,-214.9 1141.12,-208.9 1141.12,-208.9 1141.12,-173.15 1141.12,-173.15 1141.12,-167.15 1147.12,-161.15 1153.12,-161.15 1153.12,-161.15 1415.88,-161.15 1415.88,-161.15 1421.88,-161.15 1427.88,-167.15 1427.88,-173.15 1427.88,-173.15 1427.88,-208.9 1427.88,-208.9 1427.88,-214.9 1421.88,-220.9 1415.88,-220.9"/>
<text xml:space="preserve" text-anchor="middle" x="1284.5" y="-203.6" font-family="Helvetica,sans-Serif" font-size="14.00" fill="#e6e6e6">GET /agencies?page=1&amp;page_size=20</text>
<text xml:space="preserve" text-anchor="middle" x="1284.5" y="-186.35" font-family="Helvetica,sans-Serif" font-size="14.00" fill="#e6e6e6">list_agencies(include_deleted=False)</text>
<text xml:space="preserve" text-anchor="middle" x="1284.5" y="-169.1" font-family="Helvetica,sans-Serif" font-size="14.00" fill="#e6e6e6">→ deleted agency excluded</text>
</g>
<!-- resp_del&#45;&gt;list_default -->
<g id="edge15" class="edge">
<title>resp_del&#45;&gt;list_default</title>
<path fill="none" stroke="#7e8aa3" stroke-dasharray="1,5" d="M1284.5,-566.46C1284.5,-503.44 1284.5,-313.15 1284.5,-230.75"/>
<polygon fill="#7e8aa3" stroke="#7e8aa3" points="1287.3,-230.77 1284.5,-222.77 1281.7,-230.77 1287.3,-230.77"/>
<text xml:space="preserve" text-anchor="middle" x="1310.75" y="-405.27" font-family="Helvetica,sans-Serif" font-size="10.00" fill="#9aa3b2">list variant</text>
</g>
<!-- list_inc -->
<g id="node17" class="node">
<title>list_inc</title>
<path fill="#1a3a2a" stroke="#3a4252" stroke-width="1.2" d="M1785.38,-220.9C1785.38,-220.9 1471.62,-220.9 1471.62,-220.9 1465.62,-220.9 1459.62,-214.9 1459.62,-208.9 1459.62,-208.9 1459.62,-173.15 1459.62,-173.15 1459.62,-167.15 1465.62,-161.15 1471.62,-161.15 1471.62,-161.15 1785.38,-161.15 1785.38,-161.15 1791.38,-161.15 1797.38,-167.15 1797.38,-173.15 1797.38,-173.15 1797.38,-208.9 1797.38,-208.9 1797.38,-214.9 1791.38,-220.9 1785.38,-220.9"/>
<text xml:space="preserve" text-anchor="middle" x="1628.5" y="-203.6" font-family="Helvetica,sans-Serif" font-size="14.00" fill="#e6e6e6">GET /agencies?include_deleted=true&amp;page=1</text>
<text xml:space="preserve" text-anchor="middle" x="1628.5" y="-186.35" font-family="Helvetica,sans-Serif" font-size="14.00" fill="#e6e6e6">list_agencies(include_deleted=True)</text>
<text xml:space="preserve" text-anchor="middle" x="1628.5" y="-169.1" font-family="Helvetica,sans-Serif" font-size="14.00" fill="#e6e6e6">→ deleted agency included</text>
</g>
<!-- resp_del&#45;&gt;list_inc -->
<g id="edge16" class="edge">
<title>resp_del&#45;&gt;list_inc</title>
<path fill="none" stroke="#7e8aa3" stroke-dasharray="1,5" d="M1302.51,-566.46C1357.93,-502.8 1526.43,-309.27 1596.94,-228.27"/>
<polygon fill="#7e8aa3" stroke="#7e8aa3" points="1598.92,-230.27 1602.06,-222.4 1594.69,-226.59 1598.92,-230.27"/>
<text xml:space="preserve" text-anchor="middle" x="1528.13" y="-405.27" font-family="Helvetica,sans-Serif" font-size="10.00" fill="#9aa3b2">list variant</text>
</g>
<!-- svc_def -->
<g id="node11" class="node">
<title>svc_def</title>
<path fill="#1a3a2a" stroke="#3a4252" stroke-width="1.2" d="M684,-455.52C684,-455.52 329,-455.52 329,-455.52 323,-455.52 317,-449.52 317,-443.52 317,-443.52 317,-373.27 317,-373.27 317,-367.27 323,-361.27 329,-361.27 329,-361.27 684,-361.27 684,-361.27 690,-361.27 696,-367.27 696,-373.27 696,-373.27 696,-443.52 696,-443.52 696,-449.52 690,-455.52 684,-455.52"/>
<text xml:space="preserve" text-anchor="middle" x="506.5" y="-438.22" font-family="Helvetica,sans-Serif" font-size="14.00" fill="#e6e6e6">_get_agency_or_404(include_deleted=False)</text>
<text xml:space="preserve" text-anchor="middle" x="506.5" y="-420.97" font-family="Helvetica,sans-Serif" font-size="14.00" fill="#e6e6e6"> &#160;stmt = SELECT * FROM agencies</text>
<text xml:space="preserve" text-anchor="middle" x="506.5" y="-403.72" font-family="Helvetica,sans-Serif" font-size="14.00" fill="#e6e6e6"> &#160;&#160;&#160;&#160;&#160;&#160;&#160;&#160;&#160;WHERE id=:id</text>
<text xml:space="preserve" text-anchor="middle" x="506.5" y="-386.47" font-family="Helvetica,sans-Serif" font-size="14.00" fill="#e6e6e6"> &#160;&#160;&#160;&#160;&#160;&#160;&#160;&#160;&#160;&#160;&#160;AND deleted_at IS NULL</text>
<text xml:space="preserve" text-anchor="middle" x="506.5" y="-369.22" font-family="Helvetica,sans-Serif" font-size="14.00" fill="#e6e6e6"> &#160;→ row is filtered out → None → raise NotFoundError</text>
</g>
<!-- get_def&#45;&gt;svc_def -->
<g id="edge9" class="edge">
<title>get_def&#45;&gt;svc_def</title>
<path fill="none" stroke="#7e8aa3" d="M253.41,-408.4C271.37,-408.4 289.33,-408.4 307.29,-408.4"/>
<polygon fill="#7e8aa3" stroke="#7e8aa3" points="307.17,-411.2 315.17,-408.4 307.17,-405.6 307.17,-411.2"/>
</g>
<!-- resp_404 -->
<g id="node12" class="node">
<title>resp_404</title>
<path fill="#7a1f2b" stroke="#3a4252" stroke-width="1.2" d="M1067.75,-481.4C1067.75,-481.4 855.25,-481.4 855.25,-481.4 849.25,-481.4 843.25,-475.4 843.25,-469.4 843.25,-469.4 843.25,-347.4 843.25,-347.4 843.25,-341.4 849.25,-335.4 855.25,-335.4 855.25,-335.4 1067.75,-335.4 1067.75,-335.4 1073.75,-335.4 1079.75,-341.4 1079.75,-347.4 1079.75,-347.4 1079.75,-469.4 1079.75,-469.4 1079.75,-475.4 1073.75,-481.4 1067.75,-481.4"/>
<text xml:space="preserve" text-anchor="middle" x="961.5" y="-464.1" font-family="Helvetica,sans-Serif" font-size="14.00" fill="#ffffff">404 NOT_FOUND</text>
<text xml:space="preserve" text-anchor="middle" x="961.5" y="-446.85" font-family="Helvetica,sans-Serif" font-size="14.00" fill="#ffffff">{</text>
<text xml:space="preserve" text-anchor="middle" x="961.5" y="-429.6" font-family="Helvetica,sans-Serif" font-size="14.00" fill="#ffffff"> &#160;error: {</text>
<text xml:space="preserve" text-anchor="middle" x="961.5" y="-412.35" font-family="Helvetica,sans-Serif" font-size="14.00" fill="#ffffff"> &#160;&#160;&#160;code:&#39;NOT_FOUND&#39;,</text>
<text xml:space="preserve" text-anchor="middle" x="961.5" y="-395.1" font-family="Helvetica,sans-Serif" font-size="14.00" fill="#ffffff"> &#160;&#160;&#160;message:&#39;Agency not found&#39;,</text>
<text xml:space="preserve" text-anchor="middle" x="961.5" y="-377.85" font-family="Helvetica,sans-Serif" font-size="14.00" fill="#ffffff"> &#160;&#160;&#160;request_id, timestamp</text>
<text xml:space="preserve" text-anchor="middle" x="961.5" y="-360.6" font-family="Helvetica,sans-Serif" font-size="14.00" fill="#ffffff"> &#160;}</text>
<text xml:space="preserve" text-anchor="middle" x="961.5" y="-343.35" font-family="Helvetica,sans-Serif" font-size="14.00" fill="#ffffff">}</text>
</g>
<!-- svc_def&#45;&gt;resp_404 -->
<g id="edge10" class="edge">
<title>svc_def&#45;&gt;resp_404</title>
<path fill="none" stroke="#c95a5a" d="M696.5,-408.4C742.69,-408.4 791.02,-408.4 833.55,-408.4"/>
<polygon fill="#c95a5a" stroke="#c95a5a" points="833.31,-411.2 841.31,-408.4 833.31,-405.6 833.31,-411.2"/>
<text xml:space="preserve" text-anchor="middle" x="769.62" y="-427.4" font-family="Helvetica,sans-Serif" font-size="10.00" fill="#9aa3b2">deleted_at IS NOT NULL</text>
<text xml:space="preserve" text-anchor="middle" x="769.62" y="-414.65" font-family="Helvetica,sans-Serif" font-size="10.00" fill="#9aa3b2">→ row filtered out</text>
</g>
<!-- get_inc -->
<g id="node13" class="node">
<title>get_inc</title>
<path fill="#1a3a2a" stroke="#3a4252" stroke-width="1.2" d="M715.25,-209.03C715.25,-209.03 361.75,-209.03 361.75,-209.03 355.75,-209.03 349.75,-203.03 349.75,-197.03 349.75,-197.03 349.75,-185.03 349.75,-185.03 349.75,-179.03 355.75,-173.03 361.75,-173.03 361.75,-173.03 715.25,-173.03 715.25,-173.03 721.25,-173.03 727.25,-179.03 727.25,-185.03 727.25,-185.03 727.25,-197.03 727.25,-197.03 727.25,-203.03 721.25,-209.03 715.25,-209.03"/>
<text xml:space="preserve" text-anchor="middle" x="538.5" y="-186.35" font-family="Helvetica,sans-Serif" font-size="14.00" fill="#e6e6e6">STEP 3 — GET /agencies/{id}?include_deleted=true</text>
</g>
<!-- resp_404&#45;&gt;get_inc -->
<g id="edge11" class="edge">
<title>resp_404&#45;&gt;get_inc</title>
<path fill="none" stroke="#7e8aa3" d="M842.83,-346.98C755.53,-302.53 641.92,-244.68 581.2,-213.76"/>
<polygon fill="#7e8aa3" stroke="#7e8aa3" points="582.74,-211.41 574.34,-210.27 580.2,-216.4 582.74,-211.41"/>
<text xml:space="preserve" text-anchor="middle" x="809.56" y="-300.9" font-family="Helvetica,sans-Serif" font-size="10.00" fill="#9aa3b2">admin flips the flag</text>
</g>
<!-- svc_inc -->
<g id="node14" class="node">
<title>svc_inc</title>
<path fill="#1a3a2a" stroke="#3a4252" stroke-width="1.2" d="M1096.62,-238.15C1096.62,-238.15 802.38,-238.15 802.38,-238.15 796.38,-238.15 790.38,-232.15 790.38,-226.15 790.38,-226.15 790.38,-155.9 790.38,-155.9 790.38,-149.9 796.38,-143.9 802.38,-143.9 802.38,-143.9 1096.62,-143.9 1096.62,-143.9 1102.62,-143.9 1108.62,-149.9 1108.62,-155.9 1108.62,-155.9 1108.62,-226.15 1108.62,-226.15 1108.62,-232.15 1102.62,-238.15 1096.62,-238.15"/>
<text xml:space="preserve" text-anchor="middle" x="949.5" y="-220.85" font-family="Helvetica,sans-Serif" font-size="14.00" fill="#e6e6e6">_get_agency_or_404(include_deleted=True)</text>
<text xml:space="preserve" text-anchor="middle" x="949.5" y="-203.6" font-family="Helvetica,sans-Serif" font-size="14.00" fill="#e6e6e6"> &#160;stmt = SELECT * FROM agencies</text>
<text xml:space="preserve" text-anchor="middle" x="949.5" y="-186.35" font-family="Helvetica,sans-Serif" font-size="14.00" fill="#e6e6e6"> &#160;&#160;&#160;&#160;&#160;&#160;&#160;&#160;&#160;WHERE id=:id</text>
<text xml:space="preserve" text-anchor="middle" x="949.5" y="-169.1" font-family="Helvetica,sans-Serif" font-size="14.00" fill="#e6e6e6"> &#160;&#160;&#160;&#160;&#160;&#160;&#160;&#160;&#160;(deleted_at filter removed)</text>
<text xml:space="preserve" text-anchor="middle" x="949.5" y="-151.85" font-family="Helvetica,sans-Serif" font-size="14.00" fill="#e6e6e6"> &#160;→ row is found → return agency</text>
</g>
<!-- get_inc&#45;&gt;svc_inc -->
<g id="edge12" class="edge">
<title>get_inc&#45;&gt;svc_inc</title>
<path fill="none" stroke="#7e8aa3" d="M727.54,-191.03C745.26,-191.03 762.98,-191.03 780.7,-191.03"/>
<polygon fill="#7e8aa3" stroke="#7e8aa3" points="780.46,-193.83 788.46,-191.03 780.46,-188.23 780.46,-193.83"/>
</g>
<!-- resp_200 -->
<g id="node15" class="node">
<title>resp_200</title>
<path fill="#0d6e3a" stroke="#3a4252" stroke-width="1.2" d="M2101.75,-272.65C2101.75,-272.65 1841.25,-272.65 1841.25,-272.65 1835.25,-272.65 1829.25,-266.65 1829.25,-260.65 1829.25,-260.65 1829.25,-121.4 1829.25,-121.4 1829.25,-115.4 1835.25,-109.4 1841.25,-109.4 1841.25,-109.4 2101.75,-109.4 2101.75,-109.4 2107.75,-109.4 2113.75,-115.4 2113.75,-121.4 2113.75,-121.4 2113.75,-260.65 2113.75,-260.65 2113.75,-266.65 2107.75,-272.65 2101.75,-272.65"/>
<text xml:space="preserve" text-anchor="middle" x="1971.5" y="-255.35" font-family="Helvetica,sans-Serif" font-size="14.00" fill="#ffffff">200 OK</text>
<text xml:space="preserve" text-anchor="middle" x="1971.5" y="-238.1" font-family="Helvetica,sans-Serif" font-size="14.00" fill="#ffffff">{</text>
<text xml:space="preserve" text-anchor="middle" x="1971.5" y="-220.85" font-family="Helvetica,sans-Serif" font-size="14.00" fill="#ffffff"> &#160;id, name, status=&#39;SUSPENDED&#39;,</text>
<text xml:space="preserve" text-anchor="middle" x="1971.5" y="-203.6" font-family="Helvetica,sans-Serif" font-size="14.00" fill="#ffffff"> &#160;timezone, settings,</text>
<text xml:space="preserve" text-anchor="middle" x="1971.5" y="-186.35" font-family="Helvetica,sans-Serif" font-size="14.00" fill="#ffffff"> &#160;deleted_at=&#39;2026&#45;06&#45;29T10:40:00Z&#39;,</text>
<text xml:space="preserve" text-anchor="middle" x="1971.5" y="-169.1" font-family="Helvetica,sans-Serif" font-size="14.00" fill="#ffffff"> &#160;created_at, updated_at</text>
<text xml:space="preserve" text-anchor="middle" x="1971.5" y="-151.85" font-family="Helvetica,sans-Serif" font-size="14.00" fill="#ffffff">}</text>
<text xml:space="preserve" text-anchor="middle" x="1971.5" y="-134.6" font-family="Helvetica,sans-Serif" font-size="14.00" fill="#ffffff">Use case: admin / audit tools need to</text>
<text xml:space="preserve" text-anchor="middle" x="1971.5" y="-117.35" font-family="Helvetica,sans-Serif" font-size="14.00" fill="#ffffff">inspect the deleted record&#39;s history</text>
</g>
<!-- svc_inc&#45;&gt;resp_200 -->
<g id="edge13" class="edge">
<title>svc_inc&#45;&gt;resp_200</title>
<path fill="none" stroke="#5fa86f" d="M1035.31,-238.6C1063.26,-251.95 1094.97,-264.92 1125.5,-272.65 1273.71,-310.17 1666.02,-312.96 1813.5,-272.65 1815.56,-272.09 1817.62,-271.5 1819.68,-270.88"/>
<polygon fill="#5fa86f" stroke="#5fa86f" points="1820.52,-273.55 1827.29,-268.46 1818.82,-268.21 1820.52,-273.55"/>
<text xml:space="preserve" text-anchor="middle" x="1456.5" y="-300.9" font-family="Helvetica,sans-Serif" font-size="10.00" fill="#9aa3b2">row found</text>
</g>
<!-- resp_200&#45;&gt;end -->
<g id="edge14" class="edge">
<title>resp_200&#45;&gt;end</title>
<path fill="none" stroke="#7e8aa3" d="M1971.5,-109.18C1971.5,-94.88 1971.5,-80.62 1971.5,-68.24"/>
<polygon fill="#7e8aa3" stroke="#7e8aa3" points="1974.3,-68.26 1971.5,-60.26 1968.7,-68.26 1974.3,-68.26"/>
</g>
</g>
</svg>
