<?xml version="1.0" encoding="UTF-8" standalone="no"?>
<!DOCTYPE svg PUBLIC "-//W3C//DTD SVG 1.1//EN"
 "http://www.w3.org/Graphics/SVG/1.1/DTD/svg11.dtd">
<!-- Generated by graphviz version 14.1.2 (0)
 -->
<!-- Title: agencies_patch_flow Pages: 1 -->
<svg width="2285pt" height="979pt"
 viewBox="0.00 0.00 2285.00 979.00" xmlns="http://www.w3.org/2000/svg" xmlns:xlink="http://www.w3.org/1999/xlink">
<g id="graph0" class="graph" transform="scale(1 1) rotate(0) translate(4 975.15)">
<title>agencies_patch_flow</title>
<polygon fill="#0f1115" stroke="none" points="-4,4 -4,-975.15 2280.62,-975.15 2280.62,4 -4,4"/>
<text xml:space="preserve" text-anchor="start" x="1012.31" y="-954.85" font-family="Helvetica,sans-Serif" font-weight="bold" font-size="14.00" fill="#e6e6e6">agencies / status transition flow</text>
<text xml:space="preserve" text-anchor="start" x="912.19" y="-940.85" font-family="Helvetica,sans-Serif" font-size="14.00" fill="#e6e6e6"> &#160;&#160;&#160;&#160;&#160;&#160;&#160;&#160;&#160;&#160;</text>
<text xml:space="preserve" text-anchor="start" x="961.69" y="-940.85" font-family="Helvetica,sans-Serif" font-size="11.00" fill="#9aa3b2">SUSPENDED → ACTIVE · settings.suspended_at / reactivated_at stamping</text>
<!-- start -->
<g id="node1" class="node">
<title>start</title>
<ellipse fill="#0d6e3a" stroke="#3a4252" stroke-width="1.2" cx="121.88" cy="-909.95" rx="25.2" ry="25.2"/>
<text xml:space="preserve" text-anchor="middle" x="121.88" y="-905.28" font-family="Helvetica,sans-Serif" font-size="14.00" fill="#ffffff">START</text>
</g>
<!-- state_active -->
<g id="node3" class="node">
<title>state_active</title>
<path fill="#1c2540" stroke="#3a4252" stroke-width="1.2" d="M213.5,-833.75C213.5,-833.75 30.25,-833.75 30.25,-833.75 24.25,-833.75 18.25,-827.75 18.25,-821.75 18.25,-821.75 18.25,-734.25 18.25,-734.25 18.25,-728.25 24.25,-722.25 30.25,-722.25 30.25,-722.25 213.5,-722.25 213.5,-722.25 219.5,-722.25 225.5,-728.25 225.5,-734.25 225.5,-734.25 225.5,-821.75 225.5,-821.75 225.5,-827.75 219.5,-833.75 213.5,-833.75"/>
<text xml:space="preserve" text-anchor="middle" x="121.88" y="-816.45" font-family="Helvetica,sans-Serif" font-size="14.00" fill="#e6e6e6">PRE&#45;STATE</text>
<text xml:space="preserve" text-anchor="middle" x="121.88" y="-799.2" font-family="Helvetica,sans-Serif" font-size="14.00" fill="#e6e6e6">agency = {</text>
<text xml:space="preserve" text-anchor="middle" x="121.88" y="-781.95" font-family="Helvetica,sans-Serif" font-size="14.00" fill="#e6e6e6"> &#160;name=&#39;Acme Home Care&#39;,</text>
<text xml:space="preserve" text-anchor="middle" x="121.88" y="-764.7" font-family="Helvetica,sans-Serif" font-size="14.00" fill="#e6e6e6"> &#160;status=&#39;ACTIVE&#39;,</text>
<text xml:space="preserve" text-anchor="middle" x="121.88" y="-747.45" font-family="Helvetica,sans-Serif" font-size="14.00" fill="#e6e6e6"> &#160;settings={theme:&#39;dark&#39;}</text>
<text xml:space="preserve" text-anchor="middle" x="121.88" y="-730.2" font-family="Helvetica,sans-Serif" font-size="14.00" fill="#e6e6e6">}</text>
</g>
<!-- start&#45;&gt;state_active -->
<g id="edge1" class="edge">
<title>start&#45;&gt;state_active</title>
<path fill="none" stroke="#7e8aa3" d="M121.88,-884.2C121.88,-872.6 121.88,-858.19 121.88,-843.78"/>
<polygon fill="#7e8aa3" stroke="#7e8aa3" points="124.68,-843.86 121.88,-835.86 119.08,-843.86 124.68,-843.86"/>
</g>
<!-- end -->
<g id="node2" class="node">
<title>end</title>
<ellipse fill="#7a1f2b" stroke="#3a4252" stroke-width="1.2" cx="2011.88" cy="-391" rx="25.2" ry="25.2"/>
<ellipse fill="none" stroke="#3a4252" stroke-width="1.2" cx="2011.88" cy="-391" rx="29.2" ry="29.2"/>
<text xml:space="preserve" text-anchor="middle" x="2011.88" y="-386.32" font-family="Helvetica,sans-Serif" font-size="14.00" fill="#ffffff">END</text>
</g>
<!-- suspend_req -->
<g id="node4" class="node">
<title>suspend_req</title>
<path fill="#1a3a2a" stroke="#3a4252" stroke-width="1.2" d="M550.5,-833.75C550.5,-833.75 301.25,-833.75 301.25,-833.75 295.25,-833.75 289.25,-827.75 289.25,-821.75 289.25,-821.75 289.25,-734.25 289.25,-734.25 289.25,-728.25 295.25,-722.25 301.25,-722.25 301.25,-722.25 550.5,-722.25 550.5,-722.25 556.5,-722.25 562.5,-728.25 562.5,-734.25 562.5,-734.25 562.5,-821.75 562.5,-821.75 562.5,-827.75 556.5,-833.75 550.5,-833.75"/>
<text xml:space="preserve" text-anchor="middle" x="425.88" y="-816.45" font-family="Helvetica,sans-Serif" font-size="14.00" fill="#e6e6e6">STEP 1 — PATCH /agencies/{id}</text>
<text xml:space="preserve" text-anchor="middle" x="425.88" y="-799.2" font-family="Helvetica,sans-Serif" font-size="14.00" fill="#e6e6e6">{</text>
<text xml:space="preserve" text-anchor="middle" x="425.88" y="-781.95" font-family="Helvetica,sans-Serif" font-size="14.00" fill="#e6e6e6"> &#160;status: &#39;SUSPENDED&#39;</text>
<text xml:space="preserve" text-anchor="middle" x="425.88" y="-764.7" font-family="Helvetica,sans-Serif" font-size="14.00" fill="#e6e6e6">}</text>
<text xml:space="preserve" text-anchor="middle" x="425.88" y="-747.45" font-family="Helvetica,sans-Serif" font-size="14.00" fill="#e6e6e6">Pydantic strips &#39;unset&#39; fields</text>
<text xml:space="preserve" text-anchor="middle" x="425.88" y="-730.2" font-family="Helvetica,sans-Serif" font-size="14.00" fill="#e6e6e6">→ updates = {status: &#39;SUSPENDED&#39;}</text>
</g>
<!-- state_active&#45;&gt;suspend_req -->
<g id="edge2" class="edge">
<title>state_active&#45;&gt;suspend_req</title>
<path fill="none" stroke="#7e8aa3" d="M226.08,-778C243.91,-778 261.75,-778 279.58,-778"/>
<polygon fill="#7e8aa3" stroke="#7e8aa3" points="279.39,-780.8 287.39,-778 279.39,-775.2 279.39,-780.8"/>
</g>
<!-- fetch -->
<g id="node5" class="node">
<title>fetch</title>
<path fill="#1a3a2a" stroke="#3a4252" stroke-width="1.2" d="M1335.75,-825.12C1335.75,-825.12 938,-825.12 938,-825.12 932,-825.12 926,-819.12 926,-813.12 926,-813.12 926,-742.88 926,-742.88 926,-736.88 932,-730.88 938,-730.88 938,-730.88 1335.75,-730.88 1335.75,-730.88 1341.75,-730.88 1347.75,-736.88 1347.75,-742.88 1347.75,-742.88 1347.75,-813.12 1347.75,-813.12 1347.75,-819.12 1341.75,-825.12 1335.75,-825.12"/>
<text xml:space="preserve" text-anchor="middle" x="1136.88" y="-807.83" font-family="Helvetica,sans-Serif" font-size="14.00" fill="#e6e6e6">update_agency()</text>
<text xml:space="preserve" text-anchor="middle" x="1136.88" y="-790.58" font-family="Helvetica,sans-Serif" font-size="14.00" fill="#e6e6e6"> &#160;1. _get_agency_or_404(include_deleted=False)</text>
<text xml:space="preserve" text-anchor="middle" x="1136.88" y="-773.33" font-family="Helvetica,sans-Serif" font-size="14.00" fill="#e6e6e6"> &#160;2. updates = payload.model_dump(exclude_unset=True)</text>
<text xml:space="preserve" text-anchor="middle" x="1136.88" y="-756.08" font-family="Helvetica,sans-Serif" font-size="14.00" fill="#e6e6e6"> &#160;3. new_status = updates.get(&#39;status&#39;)</text>
<text xml:space="preserve" text-anchor="middle" x="1136.88" y="-738.83" font-family="Helvetica,sans-Serif" font-size="14.00" fill="#e6e6e6"> &#160;4. Branch on new_status (see next column)</text>
</g>
<!-- suspend_req&#45;&gt;fetch -->
<g id="edge4" class="edge">
<title>suspend_req&#45;&gt;fetch</title>
<path fill="none" stroke="#5fa86f" d="M562.96,-778C663.05,-778 800.85,-778 916.34,-778"/>
<polygon fill="#5fa86f" stroke="#5fa86f" points="916.16,-780.8 924.16,-778 916.16,-775.2 916.16,-780.8"/>
<text xml:space="preserve" text-anchor="middle" x="744.25" y="-784.25" font-family="Helvetica,sans-Serif" font-size="10.00" fill="#9aa3b2">Pydantic OK</text>
</g>
<!-- val -->
<g id="node22" class="node">
<title>val</title>
<path fill="#7a1f2b" stroke="#3a4252" stroke-width="1.2" d="M295.75,-599.12C295.75,-599.12 12,-599.12 12,-599.12 6,-599.12 0,-593.12 0,-587.12 0,-587.12 0,-568.62 0,-568.62 0,-562.62 6,-556.62 12,-556.62 12,-556.62 295.75,-556.62 295.75,-556.62 301.75,-556.62 307.75,-562.62 307.75,-568.62 307.75,-568.62 307.75,-587.12 307.75,-587.12 307.75,-593.12 301.75,-599.12 295.75,-599.12"/>
<text xml:space="preserve" text-anchor="middle" x="153.88" y="-581.83" font-family="Helvetica,sans-Serif" font-size="14.00" fill="#ffffff">422 VALIDATION_ERROR</text>
<text xml:space="preserve" text-anchor="middle" x="153.88" y="-564.58" font-family="Helvetica,sans-Serif" font-size="14.00" fill="#ffffff">(blank name / name&gt;255 / bad timezone)</text>
</g>
<!-- suspend_req&#45;&gt;val -->
<g id="edge3" class="edge">
<title>suspend_req&#45;&gt;val</title>
<path fill="none" stroke="#c95a5a" d="M295.49,-721.89C282.24,-714.35 269.36,-706.11 257.62,-697.25 223.63,-671.58 192.57,-633.28 173.47,-607.25"/>
<polygon fill="#c95a5a" stroke="#c95a5a" points="175.78,-605.67 168.83,-600.82 171.24,-608.95 175.78,-605.67"/>
<text xml:space="preserve" text-anchor="middle" x="294.75" y="-687.75" font-family="Helvetica,sans-Serif" font-size="10.00" fill="#9aa3b2">schema invalid</text>
</g>
<!-- branch_susp -->
<g id="node6" class="node">
<title>branch_susp</title>
<path fill="#3a2a1a" stroke="#3a4252" stroke-width="1.2" d="M360.54,-429.57C360.54,-429.57 260.71,-394.93 260.71,-394.93 255.04,-392.97 255.04,-389.03 260.71,-387.07 260.71,-387.07 360.54,-352.43 360.54,-352.43 366.21,-350.47 377.54,-350.47 383.21,-352.43 383.21,-352.43 483.04,-387.07 483.04,-387.07 488.71,-389.03 488.71,-392.97 483.04,-394.93 483.04,-394.93 383.21,-429.57 383.21,-429.57 377.54,-431.53 366.21,-431.53 360.54,-429.57"/>
<text xml:space="preserve" text-anchor="middle" x="371.88" y="-394.95" font-family="Helvetica,sans-Serif" font-size="14.00" fill="#ffcb6b">new_status ==</text>
<text xml:space="preserve" text-anchor="middle" x="371.88" y="-377.7" font-family="Helvetica,sans-Serif" font-size="14.00" fill="#ffcb6b">&#39;SUSPENDED&#39; ?</text>
</g>
<!-- fetch&#45;&gt;branch_susp -->
<g id="edge6" class="edge">
<title>fetch&#45;&gt;branch_susp</title>
<path fill="none" stroke="#7e8aa3" d="M925.61,-757.22C717.61,-735.64 425.9,-698.88 389.88,-659.5 335.45,-600.01 346.44,-498.54 359.23,-439.15"/>
<polygon fill="#7e8aa3" stroke="#7e8aa3" points="361.94,-439.89 360.96,-431.47 356.48,-438.66 361.94,-439.89"/>
</g>
<!-- branch_react -->
<g id="node12" class="node">
<title>branch_react</title>
<path fill="#3a2a1a" stroke="#3a4252" stroke-width="1.2" d="M847.36,-430.12C847.36,-430.12 725.39,-394.38 725.39,-394.38 719.63,-392.69 719.63,-389.31 725.39,-387.62 725.39,-387.62 847.36,-351.88 847.36,-351.88 853.12,-350.19 864.63,-350.19 870.39,-351.88 870.39,-351.88 992.36,-387.62 992.36,-387.62 998.12,-389.31 998.12,-392.69 992.36,-394.38 992.36,-394.38 870.39,-430.12 870.39,-430.12 864.63,-431.81 853.12,-431.81 847.36,-430.12"/>
<text xml:space="preserve" text-anchor="middle" x="858.88" y="-394.95" font-family="Helvetica,sans-Serif" font-size="14.00" fill="#ffcb6b">new_status ∈</text>
<text xml:space="preserve" text-anchor="middle" x="858.88" y="-377.7" font-family="Helvetica,sans-Serif" font-size="14.00" fill="#ffcb6b">{ACTIVE, TRIAL} ?</text>
</g>
<!-- fetch&#45;&gt;branch_react -->
<g id="edge7" class="edge">
<title>fetch&#45;&gt;branch_react</title>
<path fill="none" stroke="#7e8aa3" d="M1119.75,-730.46C1087.42,-642.66 1020.36,-461.08 1017.88,-458.5 998.49,-438.35 972.08,-424.05 946.34,-414.02"/>
<polygon fill="#7e8aa3" stroke="#7e8aa3" points="947.55,-411.48 939.07,-411.31 945.59,-416.73 947.55,-411.48"/>
</g>
<!-- branch_churn -->
<g id="node17" class="node">
<title>branch_churn</title>
<path fill="#3a2a1a" stroke="#3a4252" stroke-width="1.2" d="M1147.54,-429.57C1147.54,-429.57 1047.71,-394.93 1047.71,-394.93 1042.04,-392.97 1042.04,-389.03 1047.71,-387.07 1047.71,-387.07 1147.54,-352.43 1147.54,-352.43 1153.21,-350.47 1164.54,-350.47 1170.21,-352.43 1170.21,-352.43 1270.04,-387.07 1270.04,-387.07 1275.71,-389.03 1275.71,-392.97 1270.04,-394.93 1270.04,-394.93 1170.21,-429.57 1170.21,-429.57 1164.54,-431.53 1153.21,-431.53 1147.54,-429.57"/>
<text xml:space="preserve" text-anchor="middle" x="1158.88" y="-394.95" font-family="Helvetica,sans-Serif" font-size="14.00" fill="#ffcb6b">new_status ==</text>
<text xml:space="preserve" text-anchor="middle" x="1158.88" y="-377.7" font-family="Helvetica,sans-Serif" font-size="14.00" fill="#ffcb6b">&#39;CHURNED&#39; ?</text>
</g>
<!-- fetch&#45;&gt;branch_churn -->
<g id="edge8" class="edge">
<title>fetch&#45;&gt;branch_churn</title>
<path fill="none" stroke="#7e8aa3" d="M1255.54,-730.34C1285.03,-712.75 1313.01,-689.51 1329.88,-659.5 1365.42,-596.25 1365.4,-559.51 1329.88,-496.25 1308.43,-458.06 1266.68,-432.21 1229.81,-415.81"/>
<polygon fill="#7e8aa3" stroke="#7e8aa3" points="1231.38,-413.43 1222.93,-412.84 1229.17,-418.58 1231.38,-413.43"/>
</g>
<!-- branch_none -->
<g id="node19" class="node">
<title>branch_none</title>
<path fill="#3a2a1a" stroke="#3a4252" stroke-width="1.2" d="M1635.99,-431.83C1635.99,-431.83 1357.26,-392.67 1357.26,-392.67 1351.32,-391.83 1351.32,-390.17 1357.26,-389.33 1357.26,-389.33 1635.99,-350.17 1635.99,-350.17 1641.93,-349.33 1653.82,-349.33 1659.76,-350.17 1659.76,-350.17 1938.49,-389.33 1938.49,-389.33 1944.43,-390.17 1944.43,-391.83 1938.49,-392.67 1938.49,-392.67 1659.76,-431.83 1659.76,-431.83 1653.82,-432.67 1641.93,-432.67 1635.99,-431.83"/>
<text xml:space="preserve" text-anchor="middle" x="1647.88" y="-394.95" font-family="Helvetica,sans-Serif" font-size="14.00" fill="#ffcb6b">new_status is None ?</text>
<text xml:space="preserve" text-anchor="middle" x="1647.88" y="-377.7" font-family="Helvetica,sans-Serif" font-size="14.00" fill="#ffcb6b">(rename / timezone / settings patch only)</text>
</g>
<!-- fetch&#45;&gt;branch_none -->
<g id="edge9" class="edge">
<title>fetch&#45;&gt;branch_none</title>
<path fill="none" stroke="#7e8aa3" d="M1269.68,-730.28C1290.84,-720.63 1311.97,-709.59 1330.88,-697.25 1446.08,-622.06 1556.05,-501.63 1611.15,-436.8"/>
<polygon fill="#7e8aa3" stroke="#7e8aa3" points="1613.27,-438.63 1616.3,-430.71 1609,-435.01 1613.27,-438.63"/>
</g>
<!-- nf -->
<g id="node21" class="node">
<title>nf</title>
<path fill="#7a1f2b" stroke="#3a4252" stroke-width="1.2" d="M1301.62,-599.12C1301.62,-599.12 1122.12,-599.12 1122.12,-599.12 1116.12,-599.12 1110.12,-593.12 1110.12,-587.12 1110.12,-587.12 1110.12,-568.62 1110.12,-568.62 1110.12,-562.62 1116.12,-556.62 1122.12,-556.62 1122.12,-556.62 1301.62,-556.62 1301.62,-556.62 1307.62,-556.62 1313.62,-562.62 1313.62,-568.62 1313.62,-568.62 1313.62,-587.12 1313.62,-587.12 1313.62,-593.12 1307.62,-599.12 1301.62,-599.12"/>
<text xml:space="preserve" text-anchor="middle" x="1211.88" y="-581.83" font-family="Helvetica,sans-Serif" font-size="14.00" fill="#ffffff">404 NOT_FOUND</text>
<text xml:space="preserve" text-anchor="middle" x="1211.88" y="-564.58" font-family="Helvetica,sans-Serif" font-size="14.00" fill="#ffffff">(unknown id / soft&#45;deleted)</text>
</g>
<!-- fetch&#45;&gt;nf -->
<g id="edge5" class="edge">
<title>fetch&#45;&gt;nf</title>
<path fill="none" stroke="#c95a5a" d="M1154.55,-730.3C1168.88,-692.44 1188.63,-640.27 1200.81,-608.1"/>
<polygon fill="#c95a5a" stroke="#c95a5a" points="1203.29,-609.47 1203.5,-601 1198.05,-607.49 1203.29,-609.47"/>
<text xml:space="preserve" text-anchor="middle" x="1212.26" y="-687.75" font-family="Helvetica,sans-Serif" font-size="10.00" fill="#9aa3b2">agency not found</text>
</g>
<!-- stamp_susp -->
<g id="node7" class="node">
<title>stamp_susp</title>
<path fill="#1a3a2a" stroke="#3a4252" stroke-width="1.2" d="M497.75,-259.88C497.75,-259.88 124,-259.88 124,-259.88 118,-259.88 112,-253.88 112,-247.88 112,-247.88 112,-194.88 112,-194.88 112,-188.88 118,-182.88 124,-182.88 124,-182.88 497.75,-182.88 497.75,-182.88 503.75,-182.88 509.75,-188.88 509.75,-194.88 509.75,-194.88 509.75,-247.88 509.75,-247.88 509.75,-253.88 503.75,-259.88 497.75,-259.88"/>
<text xml:space="preserve" text-anchor="middle" x="310.88" y="-242.57" font-family="Helvetica,sans-Serif" font-size="14.00" fill="#e6e6e6">Stamp settings.suspended_at</text>
<text xml:space="preserve" text-anchor="middle" x="310.88" y="-225.32" font-family="Helvetica,sans-Serif" font-size="14.00" fill="#e6e6e6"> &#160;settings = dict(agency.settings or {})</text>
<text xml:space="preserve" text-anchor="middle" x="310.88" y="-208.07" font-family="Helvetica,sans-Serif" font-size="14.00" fill="#e6e6e6"> &#160;settings.setdefault(&#39;suspended_at&#39;, now().isoformat())</text>
<text xml:space="preserve" text-anchor="middle" x="310.88" y="-190.82" font-family="Helvetica,sans-Serif" font-size="14.00" fill="#e6e6e6"> &#160;updates[&#39;settings&#39;] = settings</text>
</g>
<!-- branch_susp&#45;&gt;stamp_susp -->
<g id="edge10" class="edge">
<title>branch_susp&#45;&gt;stamp_susp</title>
<path fill="none" stroke="#5fa86f" d="M358.34,-352.8C349.35,-328.1 337.48,-295.49 327.86,-269.05"/>
<polygon fill="#5fa86f" stroke="#5fa86f" points="330.58,-268.33 325.21,-261.77 325.31,-270.24 330.58,-268.33"/>
<text xml:space="preserve" text-anchor="middle" x="354.71" y="-314" font-family="Helvetica,sans-Serif" font-size="10.00" fill="#9aa3b2">Yes</text>
</g>
<!-- branch_susp&#45;&gt;branch_churn -->
<g id="edge11" class="edge">
<title>branch_susp&#45;&gt;branch_churn</title>
<path fill="none" stroke="#7e8aa3" d="M446.19,-408.34C522.27,-425.14 644.19,-449.43 751.12,-458.94 870.63,-469.56 902.24,-457.1 1019.88,-433.5 1042.49,-428.96 1066.68,-422.25 1088.43,-415.49"/>
<polygon fill="#7e8aa3" stroke="#7e8aa3" points="1089.04,-418.23 1095.83,-413.15 1087.36,-412.89 1089.04,-418.23"/>
<text xml:space="preserve" text-anchor="middle" x="757.88" y="-461.75" font-family="Helvetica,sans-Serif" font-size="10.00" fill="#9aa3b2">No</text>
</g>
<!-- db_update_susp -->
<g id="node8" class="node">
<title>db_update_susp</title>
<polygon fill="#22273a" stroke="#3a4252" stroke-width="1.2" points="547.62,-94.25 326.12,-94.25 326.12,0 553.62,0 553.62,-88.25 547.62,-94.25"/>
<polyline fill="none" stroke="#3a4252" stroke-width="1.2" points="547.62,-94.25 547.62,-88.25"/>
<polyline fill="none" stroke="#3a4252" stroke-width="1.2" points="553.62,-88.25 547.62,-88.25"/>
<text xml:space="preserve" text-anchor="middle" x="439.88" y="-76.95" font-family="Helvetica,sans-Serif" font-size="14.00" fill="#e6e6e6">UPDATE agencies</text>
<text xml:space="preserve" text-anchor="middle" x="439.88" y="-59.7" font-family="Helvetica,sans-Serif" font-size="14.00" fill="#e6e6e6"> &#160;SET status=&#39;SUSPENDED&#39;,</text>
<text xml:space="preserve" text-anchor="middle" x="439.88" y="-42.45" font-family="Helvetica,sans-Serif" font-size="14.00" fill="#e6e6e6"> &#160;&#160;&#160;&#160;&#160;settings=jsonb_merge(...),</text>
<text xml:space="preserve" text-anchor="middle" x="439.88" y="-25.2" font-family="Helvetica,sans-Serif" font-size="14.00" fill="#e6e6e6"> &#160;&#160;&#160;&#160;&#160;updated_at=now()</text>
<text xml:space="preserve" text-anchor="middle" x="439.88" y="-7.95" font-family="Helvetica,sans-Serif" font-size="14.00" fill="#e6e6e6"> &#160;WHERE id=:id</text>
</g>
<!-- stamp_susp&#45;&gt;db_update_susp -->
<g id="edge16" class="edge">
<title>stamp_susp&#45;&gt;db_update_susp</title>
<path fill="none" stroke="#5fa86f" d="M339.18,-182.57C356.8,-159.05 379.75,-128.41 399.28,-102.33"/>
<polygon fill="#5fa86f" stroke="#5fa86f" points="401.5,-104.04 404.05,-95.96 397.02,-100.68 401.5,-104.04"/>
<text xml:space="preserve" text-anchor="middle" x="417.6" y="-122.5" font-family="Helvetica,sans-Serif" font-size="10.00" fill="#9aa3b2">apply updates</text>
</g>
<!-- audit_susp -->
<g id="node9" class="node">
<title>audit_susp</title>
<polygon fill="#22273a" stroke="#3a4252" stroke-width="1.2" points="886.62,-94.25 617.12,-94.25 617.12,0 892.62,0 892.62,-88.25 886.62,-94.25"/>
<polyline fill="none" stroke="#3a4252" stroke-width="1.2" points="886.62,-94.25 886.62,-88.25"/>
<polyline fill="none" stroke="#3a4252" stroke-width="1.2" points="892.62,-88.25 886.62,-88.25"/>
<text xml:space="preserve" text-anchor="middle" x="754.88" y="-76.95" font-family="Helvetica,sans-Serif" font-size="14.00" fill="#e6e6e6">audit_logs row</text>
<text xml:space="preserve" text-anchor="middle" x="754.88" y="-59.7" font-family="Helvetica,sans-Serif" font-size="14.00" fill="#e6e6e6"> &#160;action=UPDATE</text>
<text xml:space="preserve" text-anchor="middle" x="754.88" y="-42.45" font-family="Helvetica,sans-Serif" font-size="14.00" fill="#e6e6e6"> &#160;entity_type=&#39;AGENCY&#39;</text>
<text xml:space="preserve" text-anchor="middle" x="754.88" y="-25.2" font-family="Helvetica,sans-Serif" font-size="14.00" fill="#e6e6e6"> &#160;new_data = {status: &#39;SUSPENDED&#39;}</text>
<text xml:space="preserve" text-anchor="middle" x="754.88" y="-7.95" font-family="Helvetica,sans-Serif" font-size="14.00" fill="#e6e6e6"> &#160;(only the changed field is logged)</text>
</g>
<!-- db_update_susp&#45;&gt;audit_susp -->
<g id="edge17" class="edge">
<title>db_update_susp&#45;&gt;audit_susp</title>
<path fill="none" stroke="#7e8aa3" stroke-dasharray="1,5" d="M554,-47.12C571.82,-47.12 589.64,-47.12 607.46,-47.12"/>
<polygon fill="#7e8aa3" stroke="#7e8aa3" points="607.26,-49.93 615.26,-47.13 607.26,-44.33 607.26,-49.93"/>
</g>
<!-- resp_susp -->
<g id="node10" class="node">
<title>resp_susp</title>
<path fill="#0d6e3a" stroke="#3a4252" stroke-width="1.2" d="M700,-659.5C700,-659.5 417.75,-659.5 417.75,-659.5 411.75,-659.5 405.75,-653.5 405.75,-647.5 405.75,-647.5 405.75,-508.25 405.75,-508.25 405.75,-502.25 411.75,-496.25 417.75,-496.25 417.75,-496.25 700,-496.25 700,-496.25 706,-496.25 712,-502.25 712,-508.25 712,-508.25 712,-647.5 712,-647.5 712,-653.5 706,-659.5 700,-659.5"/>
<text xml:space="preserve" text-anchor="middle" x="558.88" y="-642.2" font-family="Helvetica,sans-Serif" font-size="14.00" fill="#ffffff">200 OK</text>
<text xml:space="preserve" text-anchor="middle" x="558.88" y="-624.95" font-family="Helvetica,sans-Serif" font-size="14.00" fill="#ffffff">{</text>
<text xml:space="preserve" text-anchor="middle" x="558.88" y="-607.7" font-family="Helvetica,sans-Serif" font-size="14.00" fill="#ffffff"> &#160;id, name=&#39;Acme Home Care&#39;,</text>
<text xml:space="preserve" text-anchor="middle" x="558.88" y="-590.45" font-family="Helvetica,sans-Serif" font-size="14.00" fill="#ffffff"> &#160;status=&#39;SUSPENDED&#39;,</text>
<text xml:space="preserve" text-anchor="middle" x="558.88" y="-573.2" font-family="Helvetica,sans-Serif" font-size="14.00" fill="#ffffff"> &#160;settings={</text>
<text xml:space="preserve" text-anchor="middle" x="558.88" y="-555.95" font-family="Helvetica,sans-Serif" font-size="14.00" fill="#ffffff"> &#160;&#160;&#160;theme:&#39;dark&#39;,</text>
<text xml:space="preserve" text-anchor="middle" x="558.88" y="-538.7" font-family="Helvetica,sans-Serif" font-size="14.00" fill="#ffffff"> &#160;&#160;&#160;suspended_at:&#39;2026&#45;06&#45;29T10:30:00Z&#39;</text>
<text xml:space="preserve" text-anchor="middle" x="558.88" y="-521.45" font-family="Helvetica,sans-Serif" font-size="14.00" fill="#ffffff"> &#160;}</text>
<text xml:space="preserve" text-anchor="middle" x="558.88" y="-504.2" font-family="Helvetica,sans-Serif" font-size="14.00" fill="#ffffff">}</text>
</g>
<!-- db_update_susp&#45;&gt;resp_susp -->
<g id="edge18" class="edge">
<title>db_update_susp&#45;&gt;resp_susp</title>
<path fill="none" stroke="#5fa86f" d="M486.52,-94.62C501.74,-112.62 517,-134.35 525.88,-157 568.03,-264.56 570.72,-399.28 566.6,-486.67"/>
<polygon fill="#5fa86f" stroke="#5fa86f" points="563.81,-486.39 566.2,-494.52 569.41,-486.67 563.81,-486.39"/>
<text xml:space="preserve" text-anchor="middle" x="585.18" y="-314" font-family="Helvetica,sans-Serif" font-size="10.00" fill="#9aa3b2">commit()</text>
</g>
<!-- audit_susp&#45;&gt;resp_susp -->
<!-- reactivate_req -->
<g id="node11" class="node">
<title>reactivate_req</title>
<path fill="#1a3a2a" stroke="#3a4252" stroke-width="1.2" d="M1000.12,-616.38C1000.12,-616.38 787.62,-616.38 787.62,-616.38 781.62,-616.38 775.62,-610.38 775.62,-604.38 775.62,-604.38 775.62,-551.38 775.62,-551.38 775.62,-545.38 781.62,-539.38 787.62,-539.38 787.62,-539.38 1000.12,-539.38 1000.12,-539.38 1006.12,-539.38 1012.12,-545.38 1012.12,-551.38 1012.12,-551.38 1012.12,-604.38 1012.12,-604.38 1012.12,-610.38 1006.12,-616.38 1000.12,-616.38"/>
<text xml:space="preserve" text-anchor="middle" x="893.88" y="-599.08" font-family="Helvetica,sans-Serif" font-size="14.00" fill="#e6e6e6">STEP 2 — PATCH /agencies/{id}</text>
<text xml:space="preserve" text-anchor="middle" x="893.88" y="-581.83" font-family="Helvetica,sans-Serif" font-size="14.00" fill="#e6e6e6">{</text>
<text xml:space="preserve" text-anchor="middle" x="893.88" y="-564.58" font-family="Helvetica,sans-Serif" font-size="14.00" fill="#e6e6e6"> &#160;status: &#39;ACTIVE&#39;</text>
<text xml:space="preserve" text-anchor="middle" x="893.88" y="-547.33" font-family="Helvetica,sans-Serif" font-size="14.00" fill="#e6e6e6">}</text>
</g>
<!-- resp_susp&#45;&gt;reactivate_req -->
<g id="edge19" class="edge">
<title>resp_susp&#45;&gt;reactivate_req</title>
<path fill="none" stroke="#7e8aa3" d="M712.31,-577.88C730.12,-577.88 747.94,-577.88 765.76,-577.88"/>
<polygon fill="#7e8aa3" stroke="#7e8aa3" points="765.56,-580.68 773.56,-577.88 765.56,-575.08 765.56,-580.68"/>
</g>
<!-- reactivate_req&#45;&gt;branch_react -->
<!-- stamp_react -->
<g id="node13" class="node">
<title>stamp_react</title>
<path fill="#1a3a2a" stroke="#3a4252" stroke-width="1.2" d="M1019.5,-285.75C1019.5,-285.75 698.25,-285.75 698.25,-285.75 692.25,-285.75 686.25,-279.75 686.25,-273.75 686.25,-273.75 686.25,-169 686.25,-169 686.25,-163 692.25,-157 698.25,-157 698.25,-157 1019.5,-157 1019.5,-157 1025.5,-157 1031.5,-163 1031.5,-169 1031.5,-169 1031.5,-273.75 1031.5,-273.75 1031.5,-279.75 1025.5,-285.75 1019.5,-285.75"/>
<text xml:space="preserve" text-anchor="middle" x="858.88" y="-268.45" font-family="Helvetica,sans-Serif" font-size="14.00" fill="#e6e6e6">Clear suspension / churn flags</text>
<text xml:space="preserve" text-anchor="middle" x="858.88" y="-251.2" font-family="Helvetica,sans-Serif" font-size="14.00" fill="#e6e6e6"> &#160;if &#39;suspended_at&#39; in settings:</text>
<text xml:space="preserve" text-anchor="middle" x="858.88" y="-233.95" font-family="Helvetica,sans-Serif" font-size="14.00" fill="#e6e6e6"> &#160;&#160;&#160;settings[&#39;reactivated_at&#39;] = now().isoformat()</text>
<text xml:space="preserve" text-anchor="middle" x="858.88" y="-216.7" font-family="Helvetica,sans-Serif" font-size="14.00" fill="#e6e6e6"> &#160;&#160;&#160;del settings[&#39;suspended_at&#39;]</text>
<text xml:space="preserve" text-anchor="middle" x="858.88" y="-199.45" font-family="Helvetica,sans-Serif" font-size="14.00" fill="#e6e6e6"> &#160;if &#39;churned_at&#39; in settings:</text>
<text xml:space="preserve" text-anchor="middle" x="858.88" y="-182.2" font-family="Helvetica,sans-Serif" font-size="14.00" fill="#e6e6e6"> &#160;&#160;&#160;del settings[&#39;churned_at&#39;]</text>
<text xml:space="preserve" text-anchor="middle" x="858.88" y="-164.95" font-family="Helvetica,sans-Serif" font-size="14.00" fill="#e6e6e6"> &#160;updates[&#39;settings&#39;] = settings</text>
</g>
<!-- branch_react&#45;&gt;stamp_react -->
<g id="edge21" class="edge">
<title>branch_react&#45;&gt;stamp_react</title>
<path fill="none" stroke="#5fa86f" d="M858.88,-348.13C858.88,-332.2 858.88,-313.53 858.88,-295.53"/>
<polygon fill="#5fa86f" stroke="#5fa86f" points="861.68,-295.72 858.88,-287.72 856.08,-295.72 861.68,-295.72"/>
<text xml:space="preserve" text-anchor="middle" x="866.75" y="-314" font-family="Helvetica,sans-Serif" font-size="10.00" fill="#9aa3b2">Yes</text>
</g>
<!-- no_stamp -->
<g id="node20" class="node">
<title>no_stamp</title>
<path fill="#1a3a2a" stroke="#3a4252" stroke-width="1.2" d="M1596.25,-251.25C1596.25,-251.25 1405.5,-251.25 1405.5,-251.25 1399.5,-251.25 1393.5,-245.25 1393.5,-239.25 1393.5,-239.25 1393.5,-203.5 1393.5,-203.5 1393.5,-197.5 1399.5,-191.5 1405.5,-191.5 1405.5,-191.5 1596.25,-191.5 1596.25,-191.5 1602.25,-191.5 1608.25,-197.5 1608.25,-203.5 1608.25,-203.5 1608.25,-239.25 1608.25,-239.25 1608.25,-245.25 1602.25,-251.25 1596.25,-251.25"/>
<text xml:space="preserve" text-anchor="middle" x="1500.88" y="-233.95" font-family="Helvetica,sans-Serif" font-size="14.00" fill="#e6e6e6">No status transition →</text>
<text xml:space="preserve" text-anchor="middle" x="1500.88" y="-216.7" font-family="Helvetica,sans-Serif" font-size="14.00" fill="#e6e6e6">no settings stamping</text>
<text xml:space="preserve" text-anchor="middle" x="1500.88" y="-199.45" font-family="Helvetica,sans-Serif" font-size="14.00" fill="#e6e6e6">Just write the changed fields</text>
</g>
<!-- branch_react&#45;&gt;no_stamp -->
<g id="edge22" class="edge">
<title>branch_react&#45;&gt;no_stamp</title>
<path fill="none" stroke="#7e8aa3" d="M907.86,-362.44C942.43,-344.41 990.46,-322.15 1035.62,-310.75 1183.5,-273.43 1231.06,-327.07 1377.88,-285.75 1401.56,-279.09 1425.97,-267.61 1446.75,-256.24"/>
<polygon fill="#7e8aa3" stroke="#7e8aa3" points="1447.88,-258.82 1453.5,-252.47 1445.15,-253.93 1447.88,-258.82"/>
<text xml:space="preserve" text-anchor="middle" x="1104.25" y="-314" font-family="Helvetica,sans-Serif" font-size="10.00" fill="#9aa3b2">No (rare — straight to write)</text>
</g>
<!-- db_update_react -->
<g id="node14" class="node">
<title>db_update_react</title>
<polygon fill="#22273a" stroke="#3a4252" stroke-width="1.2" points="1967.62,-94.25 1746.12,-94.25 1746.12,0 1973.62,0 1973.62,-88.25 1967.62,-94.25"/>
<polyline fill="none" stroke="#3a4252" stroke-width="1.2" points="1967.62,-94.25 1967.62,-88.25"/>
<polyline fill="none" stroke="#3a4252" stroke-width="1.2" points="1973.62,-88.25 1967.62,-88.25"/>
<text xml:space="preserve" text-anchor="middle" x="1859.88" y="-76.95" font-family="Helvetica,sans-Serif" font-size="14.00" fill="#e6e6e6">UPDATE agencies</text>
<text xml:space="preserve" text-anchor="middle" x="1859.88" y="-59.7" font-family="Helvetica,sans-Serif" font-size="14.00" fill="#e6e6e6"> &#160;SET status=&#39;ACTIVE&#39;,</text>
<text xml:space="preserve" text-anchor="middle" x="1859.88" y="-42.45" font-family="Helvetica,sans-Serif" font-size="14.00" fill="#e6e6e6"> &#160;&#160;&#160;&#160;&#160;settings=jsonb_merge(...),</text>
<text xml:space="preserve" text-anchor="middle" x="1859.88" y="-25.2" font-family="Helvetica,sans-Serif" font-size="14.00" fill="#e6e6e6"> &#160;&#160;&#160;&#160;&#160;updated_at=now()</text>
<text xml:space="preserve" text-anchor="middle" x="1859.88" y="-7.95" font-family="Helvetica,sans-Serif" font-size="14.00" fill="#e6e6e6"> &#160;WHERE id=:id</text>
</g>
<!-- stamp_react&#45;&gt;db_update_react -->
<g id="edge23" class="edge">
<title>stamp_react&#45;&gt;db_update_react</title>
<path fill="none" stroke="#5fa86f" d="M1032.05,-160.88C1037.36,-159.51 1042.65,-158.21 1047.88,-157 1288.3,-101.11 1575.91,-70.96 1736.25,-57.34"/>
<polygon fill="#5fa86f" stroke="#5fa86f" points="1736.43,-60.13 1744.17,-56.67 1735.96,-54.55 1736.43,-60.13"/>
<text xml:space="preserve" text-anchor="middle" x="1258.2" y="-122.5" font-family="Helvetica,sans-Serif" font-size="10.00" fill="#9aa3b2">apply updates</text>
</g>
<!-- audit_react -->
<g id="node15" class="node">
<title>audit_react</title>
<polygon fill="#22273a" stroke="#3a4252" stroke-width="1.2" points="2270.62,-77 2037.12,-77 2037.12,-17.25 2276.62,-17.25 2276.62,-71 2270.62,-77"/>
<polyline fill="none" stroke="#3a4252" stroke-width="1.2" points="2270.62,-77 2270.62,-71"/>
<polyline fill="none" stroke="#3a4252" stroke-width="1.2" points="2276.62,-71 2270.62,-71"/>
<text xml:space="preserve" text-anchor="middle" x="2156.88" y="-59.7" font-family="Helvetica,sans-Serif" font-size="14.00" fill="#e6e6e6">audit_logs row</text>
<text xml:space="preserve" text-anchor="middle" x="2156.88" y="-42.45" font-family="Helvetica,sans-Serif" font-size="14.00" fill="#e6e6e6"> &#160;action=UPDATE</text>
<text xml:space="preserve" text-anchor="middle" x="2156.88" y="-25.2" font-family="Helvetica,sans-Serif" font-size="14.00" fill="#e6e6e6"> &#160;new_data = {status: &#39;ACTIVE&#39;}</text>
</g>
<!-- db_update_react&#45;&gt;audit_react -->
<g id="edge24" class="edge">
<title>db_update_react&#45;&gt;audit_react</title>
<path fill="none" stroke="#7e8aa3" stroke-dasharray="1,5" d="M1974.15,-47.12C1991.88,-47.12 2009.61,-47.12 2027.33,-47.12"/>
<polygon fill="#7e8aa3" stroke="#7e8aa3" points="2027.09,-49.93 2035.09,-47.13 2027.09,-44.33 2027.09,-49.93"/>
</g>
<!-- resp_react -->
<g id="node16" class="node">
<title>resp_react</title>
<path fill="#0d6e3a" stroke="#3a4252" stroke-width="1.2" d="M2231.38,-659.5C2231.38,-659.5 1948.38,-659.5 1948.38,-659.5 1942.38,-659.5 1936.38,-653.5 1936.38,-647.5 1936.38,-647.5 1936.38,-508.25 1936.38,-508.25 1936.38,-502.25 1942.38,-496.25 1948.38,-496.25 1948.38,-496.25 2231.38,-496.25 2231.38,-496.25 2237.38,-496.25 2243.38,-502.25 2243.38,-508.25 2243.38,-508.25 2243.38,-647.5 2243.38,-647.5 2243.38,-653.5 2237.38,-659.5 2231.38,-659.5"/>
<text xml:space="preserve" text-anchor="middle" x="2089.88" y="-642.2" font-family="Helvetica,sans-Serif" font-size="14.00" fill="#ffffff">200 OK</text>
<text xml:space="preserve" text-anchor="middle" x="2089.88" y="-624.95" font-family="Helvetica,sans-Serif" font-size="14.00" fill="#ffffff">{</text>
<text xml:space="preserve" text-anchor="middle" x="2089.88" y="-607.7" font-family="Helvetica,sans-Serif" font-size="14.00" fill="#ffffff"> &#160;id, name=&#39;Acme Home Care&#39;,</text>
<text xml:space="preserve" text-anchor="middle" x="2089.88" y="-590.45" font-family="Helvetica,sans-Serif" font-size="14.00" fill="#ffffff"> &#160;status=&#39;ACTIVE&#39;,</text>
<text xml:space="preserve" text-anchor="middle" x="2089.88" y="-573.2" font-family="Helvetica,sans-Serif" font-size="14.00" fill="#ffffff"> &#160;settings={</text>
<text xml:space="preserve" text-anchor="middle" x="2089.88" y="-555.95" font-family="Helvetica,sans-Serif" font-size="14.00" fill="#ffffff"> &#160;&#160;&#160;theme:&#39;dark&#39;,</text>
<text xml:space="preserve" text-anchor="middle" x="2089.88" y="-538.7" font-family="Helvetica,sans-Serif" font-size="14.00" fill="#ffffff"> &#160;&#160;&#160;reactivated_at:&#39;2026&#45;06&#45;29T10:35:00Z&#39;</text>
<text xml:space="preserve" text-anchor="middle" x="2089.88" y="-521.45" font-family="Helvetica,sans-Serif" font-size="14.00" fill="#ffffff"> &#160;}</text>
<text xml:space="preserve" text-anchor="middle" x="2089.88" y="-504.2" font-family="Helvetica,sans-Serif" font-size="14.00" fill="#ffffff">}</text>
</g>
<!-- db_update_react&#45;&gt;resp_react -->
<g id="edge25" class="edge">
<title>db_update_react&#45;&gt;resp_react</title>
<path fill="none" stroke="#5fa86f" d="M1899.74,-94.47C1945.65,-150.6 2019.55,-249.94 2056.88,-348.5 2073.43,-392.22 2081.75,-443.53 2085.9,-486.43"/>
<polygon fill="#5fa86f" stroke="#5fa86f" points="2083.1,-486.51 2086.61,-494.22 2088.67,-486 2083.1,-486.51"/>
<text xml:space="preserve" text-anchor="middle" x="2068.04" y="-314" font-family="Helvetica,sans-Serif" font-size="10.00" fill="#9aa3b2">commit()</text>
</g>
<!-- audit_react&#45;&gt;resp_react -->
<!-- resp_react&#45;&gt;end -->
<g id="edge26" class="edge">
<title>resp_react&#45;&gt;end</title>
<path fill="none" stroke="#7e8aa3" d="M2055.66,-495.79C2045.51,-471.72 2034.92,-446.62 2026.7,-427.13"/>
<polygon fill="#7e8aa3" stroke="#7e8aa3" points="2029.37,-426.27 2023.68,-419.99 2024.21,-428.45 2029.37,-426.27"/>
</g>
<!-- stamp_churn -->
<g id="node18" class="node">
<title>stamp_churn</title>
<path fill="#1a3a2a" stroke="#3a4252" stroke-width="1.2" d="M1349.88,-242.62C1349.88,-242.62 1075.88,-242.62 1075.88,-242.62 1069.88,-242.62 1063.88,-236.62 1063.88,-230.62 1063.88,-230.62 1063.88,-212.12 1063.88,-212.12 1063.88,-206.12 1069.88,-200.12 1075.88,-200.12 1075.88,-200.12 1349.88,-200.12 1349.88,-200.12 1355.88,-200.12 1361.88,-206.12 1361.88,-212.12 1361.88,-212.12 1361.88,-230.62 1361.88,-230.62 1361.88,-236.62 1355.88,-242.62 1349.88,-242.62"/>
<text xml:space="preserve" text-anchor="middle" x="1212.88" y="-225.32" font-family="Helvetica,sans-Serif" font-size="14.00" fill="#e6e6e6">Stamp settings.churned_at</text>
<text xml:space="preserve" text-anchor="middle" x="1212.88" y="-208.07" font-family="Helvetica,sans-Serif" font-size="14.00" fill="#e6e6e6"> &#160;settings.setdefault(&#39;churned_at&#39;, now())</text>
</g>
<!-- branch_churn&#45;&gt;stamp_churn -->
<g id="edge12" class="edge">
<title>branch_churn&#45;&gt;stamp_churn</title>
<path fill="none" stroke="#5fa86f" d="M1170.99,-352.38C1180.77,-322.03 1194.34,-279.92 1203.35,-251.95"/>
<polygon fill="#5fa86f" stroke="#5fa86f" points="1205.97,-252.95 1205.75,-244.48 1200.64,-251.23 1205.97,-252.95"/>
<text xml:space="preserve" text-anchor="middle" x="1192.13" y="-314" font-family="Helvetica,sans-Serif" font-size="10.00" fill="#9aa3b2">Yes</text>
</g>
<!-- branch_churn&#45;&gt;branch_none -->
<g id="edge13" class="edge">
<title>branch_churn&#45;&gt;branch_none</title>
<path fill="none" stroke="#7e8aa3" d="M1282.9,-391C1298.42,-391 1314.8,-391 1331.68,-391"/>
<polygon fill="#7e8aa3" stroke="#7e8aa3" points="1331.6,-393.8 1339.6,-391 1331.6,-388.2 1331.6,-393.8"/>
<text xml:space="preserve" text-anchor="middle" x="1313.38" y="-397.25" font-family="Helvetica,sans-Serif" font-size="10.00" fill="#9aa3b2">No</text>
</g>
<!-- branch_none&#45;&gt;no_stamp -->
<g id="edge14" class="edge">
<title>branch_none&#45;&gt;no_stamp</title>
<path fill="none" stroke="#5fa86f" d="M1615.25,-352.8C1590.61,-324.7 1556.98,-286.35 1532.57,-258.52"/>
<polygon fill="#5fa86f" stroke="#5fa86f" points="1534.95,-256.99 1527.57,-252.82 1530.74,-260.68 1534.95,-256.99"/>
<text xml:space="preserve" text-anchor="middle" x="1642.29" y="-314" font-family="Helvetica,sans-Serif" font-size="10.00" fill="#9aa3b2">Yes (no status change)</text>
</g>
<!-- no_stamp&#45;&gt;db_update_susp -->
</g>
</svg>
