<?xml version="1.0" encoding="UTF-8" standalone="no"?>
<!DOCTYPE svg PUBLIC "-//W3C//DTD SVG 1.1//EN"
 "http://www.w3.org/Graphics/SVG/1.1/DTD/svg11.dtd">
<!-- Generated by graphviz version 14.1.2 (0)
 -->
<!-- Title: agencies_create_flow Pages: 1 -->
<svg width="2840pt" height="1088pt"
 viewBox="0.00 0.00 2840.00 1088.00" xmlns="http://www.w3.org/2000/svg" xmlns:xlink="http://www.w3.org/1999/xlink">
<g id="graph0" class="graph" transform="scale(1 1) rotate(0) translate(4 1084.15)">
<title>agencies_create_flow</title>
<polygon fill="#0f1115" stroke="none" points="-4,4 -4,-1084.15 2835.5,-1084.15 2835.5,4 -4,4"/>
<text xml:space="preserve" text-anchor="start" x="1296.5" y="-1063.85" font-family="Helvetica,sans-Serif" font-weight="bold" font-size="14.00" fill="#e6e6e6">agencies / create + verify flow</text>
<text xml:space="preserve" text-anchor="start" x="1239.88" y="-1049.85" font-family="Helvetica,sans-Serif" font-size="14.00" fill="#e6e6e6"> &#160;&#160;&#160;&#160;&#160;&#160;&#160;&#160;&#160;&#160;</text>
<text xml:space="preserve" text-anchor="start" x="1289.38" y="-1049.85" font-family="Helvetica,sans-Serif" font-size="11.00" fill="#9aa3b2">POST → GET one → GET programs · SUPER_ADMIN only</text>
<!-- start -->
<g id="node1" class="node">
<title>start</title>
<ellipse fill="#0d6e3a" stroke="#3a4252" stroke-width="1.2" cx="109.25" cy="-1018.95" rx="25.2" ry="25.2"/>
<text xml:space="preserve" text-anchor="middle" x="109.25" y="-1014.28" font-family="Helvetica,sans-Serif" font-size="14.00" fill="#ffffff">START</text>
</g>
<!-- auth -->
<g id="node3" class="node">
<title>auth</title>
<path fill="#1c2540" stroke="#3a4252" stroke-width="1.2" d="M206.5,-921.5C206.5,-921.5 12,-921.5 12,-921.5 6,-921.5 0,-915.5 0,-909.5 0,-909.5 0,-856.5 0,-856.5 0,-850.5 6,-844.5 12,-844.5 12,-844.5 206.5,-844.5 206.5,-844.5 212.5,-844.5 218.5,-850.5 218.5,-856.5 218.5,-856.5 218.5,-909.5 218.5,-909.5 218.5,-915.5 212.5,-921.5 206.5,-921.5"/>
<text xml:space="preserve" text-anchor="middle" x="109.25" y="-904.2" font-family="Helvetica,sans-Serif" font-size="14.00" fill="#e6e6e6">STEP 0 — authenticate</text>
<text xml:space="preserve" text-anchor="middle" x="109.25" y="-886.95" font-family="Helvetica,sans-Serif" font-size="14.00" fill="#e6e6e6">POST /auth/login</text>
<text xml:space="preserve" text-anchor="middle" x="109.25" y="-869.7" font-family="Helvetica,sans-Serif" font-size="14.00" fill="#e6e6e6">{email, password}</text>
<text xml:space="preserve" text-anchor="middle" x="109.25" y="-852.45" font-family="Helvetica,sans-Serif" font-size="14.00" fill="#e6e6e6">→ access_token (15 min JWT)</text>
</g>
<!-- start&#45;&gt;auth -->
<g id="edge1" class="edge">
<title>start&#45;&gt;auth</title>
<path fill="none" stroke="#7e8aa3" d="M109.25,-993.38C109.25,-976.09 109.25,-952.39 109.25,-931.48"/>
<polygon fill="#7e8aa3" stroke="#7e8aa3" points="112.05,-931.61 109.25,-923.61 106.45,-931.61 112.05,-931.61"/>
</g>
<!-- end -->
<g id="node2" class="node">
<title>end</title>
<ellipse fill="#7a1f2b" stroke="#3a4252" stroke-width="1.2" cx="2728.25" cy="-186.88" rx="25.2" ry="25.2"/>
<ellipse fill="none" stroke="#3a4252" stroke-width="1.2" cx="2728.25" cy="-186.88" rx="29.2" ry="29.2"/>
<text xml:space="preserve" text-anchor="middle" x="2728.25" y="-182.2" font-family="Helvetica,sans-Serif" font-size="14.00" fill="#ffffff">END</text>
</g>
<!-- gate -->
<g id="node4" class="node">
<title>gate</title>
<path fill="#3a2a1a" stroke="#3a4252" stroke-width="1.2" d="M596.49,-940.37C596.49,-940.37 324.26,-885.38 324.26,-885.38 318.38,-884.19 318.38,-881.81 324.26,-880.62 324.26,-880.62 596.49,-825.63 596.49,-825.63 602.37,-824.44 614.13,-824.44 620.01,-825.63 620.01,-825.63 892.24,-880.62 892.24,-880.62 898.12,-881.81 898.12,-884.19 892.24,-885.38 892.24,-885.38 620.01,-940.37 620.01,-940.37 614.13,-941.56 602.37,-941.56 596.49,-940.37"/>
<text xml:space="preserve" text-anchor="middle" x="608.25" y="-895.58" font-family="Helvetica,sans-Serif" font-size="14.00" fill="#ffcb6b">role check</text>
<text xml:space="preserve" text-anchor="middle" x="608.25" y="-878.33" font-family="Helvetica,sans-Serif" font-size="14.00" fill="#ffcb6b">require_role(SUPER_ADMIN)</text>
<text xml:space="preserve" text-anchor="middle" x="608.25" y="-861.08" font-family="Helvetica,sans-Serif" font-size="14.00" fill="#ffcb6b">(applied at every endpoint via Depends)</text>
</g>
<!-- auth&#45;&gt;gate -->
<g id="edge2" class="edge">
<title>auth&#45;&gt;gate</title>
<path fill="none" stroke="#7e8aa3" d="M219.07,-883C243.92,-883 271.51,-883 300.19,-883"/>
<polygon fill="#7e8aa3" stroke="#7e8aa3" points="300.03,-885.8 308.03,-883 300.03,-880.2 300.03,-885.8"/>
<text xml:space="preserve" text-anchor="middle" x="265.5" y="-889.25" font-family="Helvetica,sans-Serif" font-size="10.00" fill="#9aa3b2">token issued</text>
</g>
<!-- forbid -->
<g id="node5" class="node">
<title>forbid</title>
<path fill="#7a1f2b" stroke="#3a4252" stroke-width="1.2" d="M425.88,-42.5C425.88,-42.5 110.62,-42.5 110.62,-42.5 104.62,-42.5 98.62,-36.5 98.62,-30.5 98.62,-30.5 98.62,-12 98.62,-12 98.62,-6 104.62,0 110.62,0 110.62,0 425.88,0 425.88,0 431.88,0 437.88,-6 437.88,-12 437.88,-12 437.88,-30.5 437.88,-30.5 437.88,-36.5 431.88,-42.5 425.88,-42.5"/>
<text xml:space="preserve" text-anchor="middle" x="268.25" y="-25.2" font-family="Helvetica,sans-Serif" font-size="14.00" fill="#ffffff">403 INSUFFICIENT_PERMISSIONS</text>
<text xml:space="preserve" text-anchor="middle" x="268.25" y="-7.95" font-family="Helvetica,sans-Serif" font-size="14.00" fill="#ffffff">(AGENCY_ADMIN, STAFF, PATIENT, GUARDIAN)</text>
</g>
<!-- gate&#45;&gt;forbid -->
<g id="edge3" class="edge">
<title>gate&#45;&gt;forbid</title>
<path fill="none" stroke="#c95a5a" d="M469.47,-850.7C375.45,-820.35 268.25,-763.61 268.25,-662.62 268.25,-662.62 268.25,-662.62 268.25,-185.88 268.25,-139.28 268.25,-85.22 268.25,-52.39"/>
<polygon fill="#c95a5a" stroke="#c95a5a" points="271.05,-52.43 268.25,-44.43 265.45,-52.43 271.05,-52.43"/>
<text xml:space="preserve" text-anchor="middle" x="326.75" y="-418.38" font-family="Helvetica,sans-Serif" font-size="10.00" fill="#9aa3b2">role ∉ {SUPER_ADMIN}</text>
</g>
<!-- unauth -->
<g id="node6" class="node">
<title>unauth</title>
<path fill="#7a1f2b" stroke="#3a4252" stroke-width="1.2" d="M734.75,-42.5C734.75,-42.5 481.75,-42.5 481.75,-42.5 475.75,-42.5 469.75,-36.5 469.75,-30.5 469.75,-30.5 469.75,-12 469.75,-12 469.75,-6 475.75,0 481.75,0 481.75,0 734.75,0 734.75,0 740.75,0 746.75,-6 746.75,-12 746.75,-12 746.75,-30.5 746.75,-30.5 746.75,-36.5 740.75,-42.5 734.75,-42.5"/>
<text xml:space="preserve" text-anchor="middle" x="608.25" y="-25.2" font-family="Helvetica,sans-Serif" font-size="14.00" fill="#ffffff">401 UNAUTHORIZED</text>
<text xml:space="preserve" text-anchor="middle" x="608.25" y="-7.95" font-family="Helvetica,sans-Serif" font-size="14.00" fill="#ffffff">(missing / expired / malformed token)</text>
</g>
<!-- gate&#45;&gt;unauth -->
<g id="edge4" class="edge">
<title>gate&#45;&gt;unauth</title>
<path fill="none" stroke="#c95a5a" d="M608.25,-822.88C608.25,-778.72 608.25,-716.9 608.25,-662.62 608.25,-662.62 608.25,-662.62 608.25,-185.88 608.25,-139.28 608.25,-85.22 608.25,-52.39"/>
<polygon fill="#c95a5a" stroke="#c95a5a" points="611.05,-52.43 608.25,-44.43 605.45,-52.43 611.05,-52.43"/>
<text xml:space="preserve" text-anchor="middle" x="662.25" y="-418.38" font-family="Helvetica,sans-Serif" font-size="10.00" fill="#9aa3b2">token missing/expired</text>
</g>
<!-- create -->
<g id="node7" class="node">
<title>create</title>
<path fill="#1a3a2a" stroke="#3a4252" stroke-width="1.2" d="M1108.12,-760.5C1108.12,-760.5 818.38,-760.5 818.38,-760.5 812.38,-760.5 806.38,-754.5 806.38,-748.5 806.38,-748.5 806.38,-574.75 806.38,-574.75 806.38,-568.75 812.38,-562.75 818.38,-562.75 818.38,-562.75 1108.12,-562.75 1108.12,-562.75 1114.12,-562.75 1120.12,-568.75 1120.12,-574.75 1120.12,-574.75 1120.12,-748.5 1120.12,-748.5 1120.12,-754.5 1114.12,-760.5 1108.12,-760.5"/>
<text xml:space="preserve" text-anchor="middle" x="963.25" y="-743.2" font-family="Helvetica,sans-Serif" font-size="14.00" fill="#e6e6e6">STEP 1 — POST /agencies</text>
<text xml:space="preserve" text-anchor="middle" x="963.25" y="-725.95" font-family="Helvetica,sans-Serif" font-size="14.00" fill="#e6e6e6">{</text>
<text xml:space="preserve" text-anchor="middle" x="963.25" y="-708.7" font-family="Helvetica,sans-Serif" font-size="14.00" fill="#e6e6e6"> &#160;name: str (required, 1..255),</text>
<text xml:space="preserve" text-anchor="middle" x="963.25" y="-691.45" font-family="Helvetica,sans-Serif" font-size="14.00" fill="#e6e6e6"> &#160;timezone: str (default &#39;America/Chicago&#39;),</text>
<text xml:space="preserve" text-anchor="middle" x="963.25" y="-674.2" font-family="Helvetica,sans-Serif" font-size="14.00" fill="#e6e6e6"> &#160;settings: dict (default {}),</text>
<text xml:space="preserve" text-anchor="middle" x="963.25" y="-656.95" font-family="Helvetica,sans-Serif" font-size="14.00" fill="#e6e6e6"> &#160;initial_program_codes: list[str] (default [])</text>
<text xml:space="preserve" text-anchor="middle" x="963.25" y="-639.7" font-family="Helvetica,sans-Serif" font-size="14.00" fill="#e6e6e6">}</text>
<text xml:space="preserve" text-anchor="middle" x="963.25" y="-622.45" font-family="Helvetica,sans-Serif" font-size="14.00" fill="#e6e6e6">Pydantic validates:</text>
<text xml:space="preserve" text-anchor="middle" x="963.25" y="-605.2" font-family="Helvetica,sans-Serif" font-size="14.00" fill="#e6e6e6"> &#160;&#45; name/timezone non&#45;empty after strip</text>
<text xml:space="preserve" text-anchor="middle" x="963.25" y="-587.95" font-family="Helvetica,sans-Serif" font-size="14.00" fill="#e6e6e6"> &#160;&#45; program codes ∈ ProgramType enum</text>
<text xml:space="preserve" text-anchor="middle" x="963.25" y="-570.7" font-family="Helvetica,sans-Serif" font-size="14.00" fill="#e6e6e6"> &#160;&#45; dedup program codes preserving order</text>
</g>
<!-- gate&#45;&gt;create -->
<g id="edge5" class="edge">
<title>gate&#45;&gt;create</title>
<path fill="none" stroke="#5fa86f" d="M680.52,-837.34C714.61,-816.27 756.81,-790.2 798.11,-764.68"/>
<polygon fill="#5fa86f" stroke="#5fa86f" points="799.46,-767.13 804.79,-760.55 796.51,-762.37 799.46,-767.13"/>
<text xml:space="preserve" text-anchor="middle" x="806.08" y="-788.75" font-family="Helvetica,sans-Serif" font-size="10.00" fill="#9aa3b2">role = SUPER_ADMIN</text>
</g>
<!-- val_bad -->
<g id="node8" class="node">
<title>val_bad</title>
<path fill="#7a1f2b" stroke="#3a4252" stroke-width="1.2" d="M1135.88,-42.5C1135.88,-42.5 790.62,-42.5 790.62,-42.5 784.62,-42.5 778.62,-36.5 778.62,-30.5 778.62,-30.5 778.62,-12 778.62,-12 778.62,-6 784.62,0 790.62,0 790.62,0 1135.88,0 1135.88,0 1141.88,0 1147.88,-6 1147.88,-12 1147.88,-12 1147.88,-30.5 1147.88,-30.5 1147.88,-36.5 1141.88,-42.5 1135.88,-42.5"/>
<text xml:space="preserve" text-anchor="middle" x="963.25" y="-25.2" font-family="Helvetica,sans-Serif" font-size="14.00" fill="#ffffff">422 VALIDATION_ERROR</text>
<text xml:space="preserve" text-anchor="middle" x="963.25" y="-7.95" font-family="Helvetica,sans-Serif" font-size="14.00" fill="#ffffff">(blank name, name&gt;255, unknown program code)</text>
</g>
<!-- create&#45;&gt;val_bad -->
<g id="edge6" class="edge">
<title>create&#45;&gt;val_bad</title>
<path fill="none" stroke="#c95a5a" d="M963.25,-562.28C963.25,-414.46 963.25,-142.69 963.25,-52.34"/>
<polygon fill="#c95a5a" stroke="#c95a5a" points="966.05,-52.47 963.25,-44.47 960.45,-52.47 966.05,-52.47"/>
<text xml:space="preserve" text-anchor="middle" x="1000.38" y="-296.75" font-family="Helvetica,sans-Serif" font-size="10.00" fill="#9aa3b2">schema invalid</text>
</g>
<!-- service_create -->
<g id="node9" class="node">
<title>service_create</title>
<path fill="#1a3a2a" stroke="#3a4252" stroke-width="1.2" d="M1613.62,-734.62C1613.62,-734.62 1254.88,-734.62 1254.88,-734.62 1248.88,-734.62 1242.88,-728.62 1242.88,-722.62 1242.88,-722.62 1242.88,-600.62 1242.88,-600.62 1242.88,-594.62 1248.88,-588.62 1254.88,-588.62 1254.88,-588.62 1613.62,-588.62 1613.62,-588.62 1619.62,-588.62 1625.62,-594.62 1625.62,-600.62 1625.62,-600.62 1625.62,-722.62 1625.62,-722.62 1625.62,-728.62 1619.62,-734.62 1613.62,-734.62"/>
<text xml:space="preserve" text-anchor="middle" x="1434.25" y="-717.33" font-family="Helvetica,sans-Serif" font-size="14.00" fill="#e6e6e6">agencies_service.create_agency(session, payload)</text>
<text xml:space="preserve" text-anchor="middle" x="1434.25" y="-700.08" font-family="Helvetica,sans-Serif" font-size="14.00" fill="#e6e6e6">1. Build Agency(name, timezone, settings)</text>
<text xml:space="preserve" text-anchor="middle" x="1434.25" y="-682.83" font-family="Helvetica,sans-Serif" font-size="14.00" fill="#e6e6e6"> &#160;&#160;session.add(agency); flush()</text>
<text xml:space="preserve" text-anchor="middle" x="1434.25" y="-665.58" font-family="Helvetica,sans-Serif" font-size="14.00" fill="#e6e6e6">2. IntegrityError → 409 ConflictError</text>
<text xml:space="preserve" text-anchor="middle" x="1434.25" y="-648.33" font-family="Helvetica,sans-Serif" font-size="14.00" fill="#e6e6e6">3. If initial_program_codes:</text>
<text xml:space="preserve" text-anchor="middle" x="1434.25" y="-631.08" font-family="Helvetica,sans-Serif" font-size="14.00" fill="#e6e6e6"> &#160;&#160;&#160;&#160;_resolve_program_codes(session, codes)</text>
<text xml:space="preserve" text-anchor="middle" x="1434.25" y="-613.83" font-family="Helvetica,sans-Serif" font-size="14.00" fill="#e6e6e6"> &#160;&#160;&#160;&#160;INSERT agency_programs rows (is_enabled=true)</text>
<text xml:space="preserve" text-anchor="middle" x="1434.25" y="-596.58" font-family="Helvetica,sans-Serif" font-size="14.00" fill="#e6e6e6">4. flush()</text>
</g>
<!-- create&#45;&gt;service_create -->
<g id="edge7" class="edge">
<title>create&#45;&gt;service_create</title>
<path fill="none" stroke="#5fa86f" d="M1120.41,-661.62C1156.57,-661.62 1195.51,-661.62 1233.24,-661.62"/>
<polygon fill="#5fa86f" stroke="#5fa86f" points="1232.78,-664.43 1240.78,-661.63 1232.78,-658.83 1232.78,-664.43"/>
<text xml:space="preserve" text-anchor="middle" x="1181.5" y="-667.88" font-family="Helvetica,sans-Serif" font-size="10.00" fill="#9aa3b2">Pydantic OK</text>
</g>
<!-- db_create -->
<g id="node10" class="node">
<title>db_create</title>
<polygon fill="#22273a" stroke="#3a4252" stroke-width="1.2" points="1264.38,-493.88 1012.12,-493.88 1012.12,-349.12 1270.38,-349.12 1270.38,-487.88 1264.38,-493.88"/>
<polyline fill="none" stroke="#3a4252" stroke-width="1.2" points="1264.38,-493.88 1264.38,-487.88"/>
<polyline fill="none" stroke="#3a4252" stroke-width="1.2" points="1270.38,-487.88 1264.38,-487.88"/>
<text xml:space="preserve" text-anchor="middle" x="1141.25" y="-476.57" font-family="Helvetica,sans-Serif" font-size="14.00" fill="#e6e6e6">agencies table</text>
<text xml:space="preserve" text-anchor="middle" x="1141.25" y="-459.32" font-family="Helvetica,sans-Serif" font-size="14.00" fill="#e6e6e6"> &#160;id (uuid, PK)</text>
<text xml:space="preserve" text-anchor="middle" x="1141.25" y="-442.07" font-family="Helvetica,sans-Serif" font-size="14.00" fill="#e6e6e6"> &#160;name, timezone, status=&#39;ACTIVE&#39;</text>
<text xml:space="preserve" text-anchor="middle" x="1141.25" y="-424.82" font-family="Helvetica,sans-Serif" font-size="14.00" fill="#e6e6e6"> &#160;settings (jsonb), deleted_at (null)</text>
<text xml:space="preserve" text-anchor="middle" x="1141.25" y="-391.57" font-family="Helvetica,sans-Serif" font-size="14.00" fill="#e6e6e6">agency_programs table</text>
<text xml:space="preserve" text-anchor="middle" x="1141.25" y="-374.32" font-family="Helvetica,sans-Serif" font-size="14.00" fill="#e6e6e6"> &#160;agency_id (FK), program_id (FK)</text>
<text xml:space="preserve" text-anchor="middle" x="1141.25" y="-357.07" font-family="Helvetica,sans-Serif" font-size="14.00" fill="#e6e6e6"> &#160;is_enabled=true</text>
</g>
<!-- service_create&#45;&gt;db_create -->
<g id="edge8" class="edge">
<title>service_create&#45;&gt;db_create</title>
<path fill="none" stroke="#7e8aa3" stroke-dasharray="1,5" d="M1334.01,-588.21C1298.66,-560.36 1259.36,-528.47 1225.46,-500.15"/>
<polygon fill="#7e8aa3" stroke="#7e8aa3" points="1227.4,-498.12 1219.47,-495.13 1223.81,-502.42 1227.4,-498.12"/>
</g>
<!-- audit_create -->
<g id="node11" class="node">
<title>audit_create</title>
<polygon fill="#22273a" stroke="#3a4252" stroke-width="1.2" points="1749.88,-494.5 1302.62,-494.5 1302.62,-348.5 1755.88,-348.5 1755.88,-488.5 1749.88,-494.5"/>
<polyline fill="none" stroke="#3a4252" stroke-width="1.2" points="1749.88,-494.5 1749.88,-488.5"/>
<polyline fill="none" stroke="#3a4252" stroke-width="1.2" points="1755.88,-488.5 1749.88,-488.5"/>
<text xml:space="preserve" text-anchor="middle" x="1529.25" y="-477.2" font-family="Helvetica,sans-Serif" font-size="14.00" fill="#e6e6e6">audit_logs row</text>
<text xml:space="preserve" text-anchor="middle" x="1529.25" y="-459.95" font-family="Helvetica,sans-Serif" font-size="14.00" fill="#e6e6e6"> &#160;agency_id=NULL</text>
<text xml:space="preserve" text-anchor="middle" x="1529.25" y="-442.7" font-family="Helvetica,sans-Serif" font-size="14.00" fill="#e6e6e6"> &#160;actor_user_id = caller</text>
<text xml:space="preserve" text-anchor="middle" x="1529.25" y="-425.45" font-family="Helvetica,sans-Serif" font-size="14.00" fill="#e6e6e6"> &#160;action=CREATE</text>
<text xml:space="preserve" text-anchor="middle" x="1529.25" y="-408.2" font-family="Helvetica,sans-Serif" font-size="14.00" fill="#e6e6e6"> &#160;entity_type=&#39;AGENCY&#39;</text>
<text xml:space="preserve" text-anchor="middle" x="1529.25" y="-390.95" font-family="Helvetica,sans-Serif" font-size="14.00" fill="#e6e6e6"> &#160;entity_id = new agency.id</text>
<text xml:space="preserve" text-anchor="middle" x="1529.25" y="-373.7" font-family="Helvetica,sans-Serif" font-size="14.00" fill="#e6e6e6"> &#160;new_data = {name, timezone, status, initial_program_codes}</text>
<text xml:space="preserve" text-anchor="middle" x="1529.25" y="-356.45" font-family="Helvetica,sans-Serif" font-size="14.00" fill="#e6e6e6"> &#160;(best&#45;effort: try/except, never breaks the write)</text>
</g>
<!-- service_create&#45;&gt;audit_create -->
<g id="edge9" class="edge">
<title>service_create&#45;&gt;audit_create</title>
<path fill="none" stroke="#7e8aa3" stroke-dasharray="1,5" d="M1452,-588.21C1461.65,-561.43 1473.73,-530.9 1485.54,-503.41"/>
<polygon fill="#7e8aa3" stroke="#7e8aa3" points="1487.98,-504.82 1488.59,-496.37 1482.84,-502.6 1487.98,-504.82"/>
</g>
<!-- resp_201 -->
<g id="node12" class="node">
<title>resp_201</title>
<path fill="#0d6e3a" stroke="#3a4252" stroke-width="1.2" d="M1914.12,-242.62C1914.12,-242.62 1726.38,-242.62 1726.38,-242.62 1720.38,-242.62 1714.38,-236.62 1714.38,-230.62 1714.38,-230.62 1714.38,-143.12 1714.38,-143.12 1714.38,-137.12 1720.38,-131.12 1726.38,-131.12 1726.38,-131.12 1914.12,-131.12 1914.12,-131.12 1920.12,-131.12 1926.12,-137.12 1926.12,-143.12 1926.12,-143.12 1926.12,-230.62 1926.12,-230.62 1926.12,-236.62 1920.12,-242.62 1914.12,-242.62"/>
<text xml:space="preserve" text-anchor="middle" x="1820.25" y="-225.32" font-family="Helvetica,sans-Serif" font-size="14.00" fill="#ffffff">201 Created</text>
<text xml:space="preserve" text-anchor="middle" x="1820.25" y="-208.07" font-family="Helvetica,sans-Serif" font-size="14.00" fill="#ffffff">{</text>
<text xml:space="preserve" text-anchor="middle" x="1820.25" y="-190.82" font-family="Helvetica,sans-Serif" font-size="14.00" fill="#ffffff"> &#160;id, name, status=&#39;ACTIVE&#39;,</text>
<text xml:space="preserve" text-anchor="middle" x="1820.25" y="-173.57" font-family="Helvetica,sans-Serif" font-size="14.00" fill="#ffffff"> &#160;timezone, settings,</text>
<text xml:space="preserve" text-anchor="middle" x="1820.25" y="-156.32" font-family="Helvetica,sans-Serif" font-size="14.00" fill="#ffffff"> &#160;created_at, updated_at</text>
<text xml:space="preserve" text-anchor="middle" x="1820.25" y="-139.07" font-family="Helvetica,sans-Serif" font-size="14.00" fill="#ffffff">}</text>
</g>
<!-- service_create&#45;&gt;resp_201 -->
<g id="edge10" class="edge">
<title>service_create&#45;&gt;resp_201</title>
<path fill="none" stroke="#5fa86f" d="M1625.98,-614.45C1681.01,-592.13 1735.89,-559.42 1772.25,-511.75 1829.4,-436.81 1832.66,-323.08 1827.86,-252.25"/>
<polygon fill="#5fa86f" stroke="#5fa86f" points="1830.66,-252.25 1827.28,-244.48 1825.08,-252.67 1830.66,-252.25"/>
<text xml:space="preserve" text-anchor="middle" x="1850.95" y="-418.38" font-family="Helvetica,sans-Serif" font-size="10.00" fill="#9aa3b2">commit()</text>
</g>
<!-- db_create&#45;&gt;service_create -->
<!-- audit_create&#45;&gt;service_create -->
<!-- get_one -->
<g id="node13" class="node">
<title>get_one</title>
<path fill="#1a3a2a" stroke="#3a4252" stroke-width="1.2" d="M2277.25,-225.38C2277.25,-225.38 2057.25,-225.38 2057.25,-225.38 2051.25,-225.38 2045.25,-219.38 2045.25,-213.38 2045.25,-213.38 2045.25,-160.38 2045.25,-160.38 2045.25,-154.38 2051.25,-148.38 2057.25,-148.38 2057.25,-148.38 2277.25,-148.38 2277.25,-148.38 2283.25,-148.38 2289.25,-154.38 2289.25,-160.38 2289.25,-160.38 2289.25,-213.38 2289.25,-213.38 2289.25,-219.38 2283.25,-225.38 2277.25,-225.38"/>
<text xml:space="preserve" text-anchor="middle" x="2167.25" y="-208.07" font-family="Helvetica,sans-Serif" font-size="14.00" fill="#e6e6e6">STEP 2 — GET /agencies/{id}</text>
<text xml:space="preserve" text-anchor="middle" x="2167.25" y="-190.82" font-family="Helvetica,sans-Serif" font-size="14.00" fill="#e6e6e6">[include_deleted=false (default)]</text>
<text xml:space="preserve" text-anchor="middle" x="2167.25" y="-173.57" font-family="Helvetica,sans-Serif" font-size="14.00" fill="#e6e6e6"> &#160;→ _get_agency_or_404()</text>
<text xml:space="preserve" text-anchor="middle" x="2167.25" y="-156.32" font-family="Helvetica,sans-Serif" font-size="14.00" fill="#e6e6e6"> &#160;&#160;&#160;.where(deleted_at IS NULL)</text>
</g>
<!-- resp_201&#45;&gt;get_one -->
<g id="edge11" class="edge">
<title>resp_201&#45;&gt;get_one</title>
<path fill="none" stroke="#7e8aa3" d="M1926.72,-186.88C1961.16,-186.88 1999.75,-186.88 2035.78,-186.88"/>
<polygon fill="#7e8aa3" stroke="#7e8aa3" points="2035.37,-189.68 2043.37,-186.88 2035.37,-184.08 2035.37,-189.68"/>
<text xml:space="preserve" text-anchor="middle" x="1985.69" y="-193.12" font-family="Helvetica,sans-Serif" font-size="10.00" fill="#9aa3b2">client uses new id</text>
</g>
<!-- resp_200_get -->
<g id="node14" class="node">
<title>resp_200_get</title>
<path fill="#0d6e3a" stroke="#3a4252" stroke-width="1.2" d="M2419,-442.75C2419,-442.75 2209.5,-442.75 2209.5,-442.75 2203.5,-442.75 2197.5,-436.75 2197.5,-430.75 2197.5,-430.75 2197.5,-412.25 2197.5,-412.25 2197.5,-406.25 2203.5,-400.25 2209.5,-400.25 2209.5,-400.25 2419,-400.25 2419,-400.25 2425,-400.25 2431,-406.25 2431,-412.25 2431,-412.25 2431,-430.75 2431,-430.75 2431,-436.75 2425,-442.75 2419,-442.75"/>
<text xml:space="preserve" text-anchor="middle" x="2314.25" y="-425.45" font-family="Helvetica,sans-Serif" font-size="14.00" fill="#ffffff">200 OK</text>
<text xml:space="preserve" text-anchor="middle" x="2314.25" y="-408.2" font-family="Helvetica,sans-Serif" font-size="14.00" fill="#ffffff">{same AgencyResponse body}</text>
</g>
<!-- get_one&#45;&gt;resp_200_get -->
<g id="edge13" class="edge">
<title>get_one&#45;&gt;resp_200_get</title>
<path fill="none" stroke="#5fa86f" d="M2191.07,-225.57C2220.47,-272.1 2269.8,-350.17 2296.24,-391.99"/>
<polygon fill="#5fa86f" stroke="#5fa86f" points="2293.76,-393.31 2300.4,-398.58 2298.49,-390.32 2293.76,-393.31"/>
<text xml:space="preserve" text-anchor="middle" x="2254.62" y="-296.75" font-family="Helvetica,sans-Serif" font-size="10.00" fill="#9aa3b2">found</text>
</g>
<!-- nf_get -->
<g id="node15" class="node">
<title>nf_get</title>
<path fill="#7a1f2b" stroke="#3a4252" stroke-width="1.2" d="M2465.38,-42.5C2465.38,-42.5 2195.12,-42.5 2195.12,-42.5 2189.12,-42.5 2183.12,-36.5 2183.12,-30.5 2183.12,-30.5 2183.12,-12 2183.12,-12 2183.12,-6 2189.12,0 2195.12,0 2195.12,0 2465.38,0 2465.38,0 2471.38,0 2477.38,-6 2477.38,-12 2477.38,-12 2477.38,-30.5 2477.38,-30.5 2477.38,-36.5 2471.38,-42.5 2465.38,-42.5"/>
<text xml:space="preserve" text-anchor="middle" x="2330.25" y="-25.2" font-family="Helvetica,sans-Serif" font-size="14.00" fill="#ffffff">404 NOT_FOUND</text>
<text xml:space="preserve" text-anchor="middle" x="2330.25" y="-7.95" font-family="Helvetica,sans-Serif" font-size="14.00" fill="#ffffff">(unknown id, OR soft&#45;deleted + default)</text>
</g>
<!-- get_one&#45;&gt;nf_get -->
<g id="edge12" class="edge">
<title>get_one&#45;&gt;nf_get</title>
<path fill="none" stroke="#c95a5a" d="M2205.06,-147.92C2235.05,-117.81 2276.26,-76.44 2303.07,-49.53"/>
<polygon fill="#c95a5a" stroke="#c95a5a" points="2304.83,-51.73 2308.5,-44.09 2300.87,-47.78 2304.83,-51.73"/>
<text xml:space="preserve" text-anchor="middle" x="2324.09" y="-70.75" font-family="Helvetica,sans-Serif" font-size="10.00" fill="#9aa3b2">missing / deleted</text>
</g>
<!-- list_prog -->
<g id="node16" class="node">
<title>list_prog</title>
<path fill="#1a3a2a" stroke="#3a4252" stroke-width="1.2" d="M2654.88,-268.5C2654.88,-268.5 2333.62,-268.5 2333.62,-268.5 2327.62,-268.5 2321.62,-262.5 2321.62,-256.5 2321.62,-256.5 2321.62,-117.25 2321.62,-117.25 2321.62,-111.25 2327.62,-105.25 2333.62,-105.25 2333.62,-105.25 2654.88,-105.25 2654.88,-105.25 2660.88,-105.25 2666.88,-111.25 2666.88,-117.25 2666.88,-117.25 2666.88,-256.5 2666.88,-256.5 2666.88,-262.5 2660.88,-268.5 2654.88,-268.5"/>
<text xml:space="preserve" text-anchor="middle" x="2494.25" y="-251.2" font-family="Helvetica,sans-Serif" font-size="14.00" fill="#e6e6e6">STEP 3 — GET /agencies/{id}/programs</text>
<text xml:space="preserve" text-anchor="middle" x="2494.25" y="-233.95" font-family="Helvetica,sans-Serif" font-size="14.00" fill="#e6e6e6">list_agency_programs(session, agency_id)</text>
<text xml:space="preserve" text-anchor="middle" x="2494.25" y="-216.7" font-family="Helvetica,sans-Serif" font-size="14.00" fill="#e6e6e6"> &#160;1. _get_agency_or_404(include_deleted=True)</text>
<text xml:space="preserve" text-anchor="middle" x="2494.25" y="-199.45" font-family="Helvetica,sans-Serif" font-size="14.00" fill="#e6e6e6"> &#160;2. SELECT ap, p</text>
<text xml:space="preserve" text-anchor="middle" x="2494.25" y="-182.2" font-family="Helvetica,sans-Serif" font-size="14.00" fill="#e6e6e6"> &#160;&#160;&#160;&#160;&#160;&#160;FROM agency_programs ap</text>
<text xml:space="preserve" text-anchor="middle" x="2494.25" y="-164.95" font-family="Helvetica,sans-Serif" font-size="14.00" fill="#e6e6e6"> &#160;&#160;&#160;&#160;&#160;&#160;JOIN programs p ON p.id = ap.program_id</text>
<text xml:space="preserve" text-anchor="middle" x="2494.25" y="-147.7" font-family="Helvetica,sans-Serif" font-size="14.00" fill="#e6e6e6"> &#160;&#160;&#160;&#160;&#160;WHERE ap.agency_id = :id</text>
<text xml:space="preserve" text-anchor="middle" x="2494.25" y="-130.45" font-family="Helvetica,sans-Serif" font-size="14.00" fill="#e6e6e6"> &#160;&#160;&#160;&#160;&#160;ORDER BY p.code</text>
<text xml:space="preserve" text-anchor="middle" x="2494.25" y="-113.2" font-family="Helvetica,sans-Serif" font-size="14.00" fill="#e6e6e6"> &#160;→ list[(AgencyProgram, Program)]</text>
</g>
<!-- resp_200_get&#45;&gt;list_prog -->
<g id="edge14" class="edge">
<title>resp_200_get&#45;&gt;list_prog</title>
<path fill="none" stroke="#7e8aa3" d="M2330.22,-399.86C2351.62,-372.21 2390.92,-321.41 2425.69,-276.48"/>
<polygon fill="#7e8aa3" stroke="#7e8aa3" points="2427.84,-278.27 2430.52,-270.23 2423.41,-274.85 2427.84,-278.27"/>
<text xml:space="preserve" text-anchor="middle" x="2448.27" y="-296.75" font-family="Helvetica,sans-Serif" font-size="10.00" fill="#9aa3b2">verify programs</text>
</g>
<!-- list_prog&#45;&gt;nf_get -->
<g id="edge15" class="edge">
<title>list_prog&#45;&gt;nf_get</title>
<path fill="none" stroke="#c95a5a" d="M2413.21,-105.02C2393.2,-85.05 2373.11,-65.01 2357.71,-49.65"/>
<polygon fill="#c95a5a" stroke="#c95a5a" points="2359.69,-47.67 2352.05,-44 2355.74,-51.64 2359.69,-47.67"/>
<text xml:space="preserve" text-anchor="middle" x="2433.35" y="-70.75" font-family="Helvetica,sans-Serif" font-size="10.00" fill="#9aa3b2">agency_id missing</text>
</g>
<!-- resp_prog -->
<g id="node17" class="node">
<title>resp_prog</title>
<path fill="#0d6e3a" stroke="#3a4252" stroke-width="1.2" d="M2819.5,-511.75C2819.5,-511.75 2583,-511.75 2583,-511.75 2577,-511.75 2571,-505.75 2571,-499.75 2571,-499.75 2571,-343.25 2571,-343.25 2571,-337.25 2577,-331.25 2583,-331.25 2583,-331.25 2819.5,-331.25 2819.5,-331.25 2825.5,-331.25 2831.5,-337.25 2831.5,-343.25 2831.5,-343.25 2831.5,-499.75 2831.5,-499.75 2831.5,-505.75 2825.5,-511.75 2819.5,-511.75"/>
<text xml:space="preserve" text-anchor="middle" x="2701.25" y="-494.45" font-family="Helvetica,sans-Serif" font-size="14.00" fill="#ffffff">200 OK</text>
<text xml:space="preserve" text-anchor="middle" x="2701.25" y="-477.2" font-family="Helvetica,sans-Serif" font-size="14.00" fill="#ffffff">{</text>
<text xml:space="preserve" text-anchor="middle" x="2701.25" y="-459.95" font-family="Helvetica,sans-Serif" font-size="14.00" fill="#ffffff"> &#160;data: [</text>
<text xml:space="preserve" text-anchor="middle" x="2701.25" y="-442.7" font-family="Helvetica,sans-Serif" font-size="14.00" fill="#ffffff"> &#160;&#160;&#160;{</text>
<text xml:space="preserve" text-anchor="middle" x="2701.25" y="-425.45" font-family="Helvetica,sans-Serif" font-size="14.00" fill="#ffffff"> &#160;&#160;&#160;&#160;&#160;id, program_id,</text>
<text xml:space="preserve" text-anchor="middle" x="2701.25" y="-408.2" font-family="Helvetica,sans-Serif" font-size="14.00" fill="#ffffff"> &#160;&#160;&#160;&#160;&#160;program_code, program_name,</text>
<text xml:space="preserve" text-anchor="middle" x="2701.25" y="-390.95" font-family="Helvetica,sans-Serif" font-size="14.00" fill="#ffffff"> &#160;&#160;&#160;&#160;&#160;is_enabled, created_at</text>
<text xml:space="preserve" text-anchor="middle" x="2701.25" y="-373.7" font-family="Helvetica,sans-Serif" font-size="14.00" fill="#ffffff"> &#160;&#160;&#160;}, ...</text>
<text xml:space="preserve" text-anchor="middle" x="2701.25" y="-356.45" font-family="Helvetica,sans-Serif" font-size="14.00" fill="#ffffff"> &#160;]</text>
<text xml:space="preserve" text-anchor="middle" x="2701.25" y="-339.2" font-family="Helvetica,sans-Serif" font-size="14.00" fill="#ffffff">}</text>
</g>
<!-- list_prog&#45;&gt;resp_prog -->
<g id="edge16" class="edge">
<title>list_prog&#45;&gt;resp_prog</title>
<path fill="none" stroke="#5fa86f" d="M2566.49,-269.06C2582.33,-286.85 2599.24,-305.86 2615.54,-324.18"/>
<polygon fill="#5fa86f" stroke="#5fa86f" points="2613.1,-325.65 2620.51,-329.76 2617.28,-321.93 2613.1,-325.65"/>
<text xml:space="preserve" text-anchor="middle" x="2631.5" y="-296.75" font-family="Helvetica,sans-Serif" font-size="10.00" fill="#9aa3b2">agency exists</text>
</g>
<!-- resp_prog&#45;&gt;end -->
<g id="edge17" class="edge">
<title>resp_prog&#45;&gt;end</title>
<path fill="none" stroke="#7e8aa3" d="M2711.65,-330.89C2715.89,-294.33 2720.57,-254.04 2723.88,-225.56"/>
<polygon fill="#7e8aa3" stroke="#7e8aa3" points="2726.63,-226.16 2724.77,-217.89 2721.06,-225.51 2726.63,-226.16"/>
</g>
</g>
</svg>
